<svg xmlns="http://www.w3.org/2000/svg" xmlns:xlink="http://www.w3.org/1999/xlink" width="603" height="250" contentScriptType="application/ecmascript" contentStyleType="text/css" preserveAspectRatio="none" style="width:603px;height:250px" version="1.1" viewBox="0 0 603 250" zoomAndPan="magnify"><g><rect width="275" height="45.609" x="7" fill="#FFF" style="stroke:#000;stroke-width:1.5" y="103"/><text x="120.5" y="116.139" fill="#000" font-family="sans-serif" font-size="12" lengthAdjust="spacing" textLength="48">pipeline</text><line style="stroke:#000;stroke-width:1.5" x1="8" x2="281" y1="120.969" y2="120.969"/><text x="13" y="134.251" fill="#000" font-family="sans-serif" font-size="10" lengthAdjust="spacing" textLength="99">aces:pipelineType</text><line style="stroke:#000;stroke-width:1;stroke-dasharray:1,2" x1="8" x2="281" y1="140.609" y2="140.609"/><rect width="275" height="45.609" x="322" fill="#FFF" style="stroke:#000;stroke-width:1.5" y="7"/><text x="424.5" y="20.139" fill="#000" font-family="sans-serif" font-size="12" lengthAdjust="spacing" textLength="70">pipelineInfo</text><line style="stroke:#000;stroke-width:1.5" x1="323" x2="596" y1="24.969" y2="24.969"/><text x="328" y="38.251" fill="#000" font-family="sans-serif" font-size="10" lengthAdjust="spacing" textLength="120">aces:pipelineInfoType</text><line style="stroke:#000;stroke-width:1;stroke-dasharray:1,2" x1="323" x2="596" y1="44.609" y2="44.609"/><rect width="275" height="57.25" x="322" fill="#FFF" style="stroke:#000;stroke-width:1.5" y="63.5"/><text x="414.5" y="76.639" fill="#000" font-family="sans-serif" font-size="12" lengthAdjust="spacing" textLength="90">inputTransform</text><line style="stroke:#000;stroke-width:1.5" x1="323" x2="596" y1="81.469" y2="81.469"/><text x="328" y="94.751" fill="#000" font-family="sans-serif" font-size="10" lengthAdjust="spacing" textLength="139">aces:inputTransformType</text><line style="stroke:#000;stroke-width:1;stroke-dasharray:1,2" x1="323" x2="596" y1="101.109" y2="101.109"/><ellipse cx="333" cy="112.109" rx="3" ry="3" style="stroke:#038048;stroke-width:1;fill:none"/><text x="342" y="114.392" fill="#000" font-family="sans-serif" font-size="10" lengthAdjust="spacing" textLength="88">applied : xs:bool</text><rect width="275" height="57.25" x="322" fill="#FFF" style="stroke:#000;stroke-width:1.5" y="130.5"/><text x="416" y="143.639" fill="#000" font-family="sans-serif" font-size="12" lengthAdjust="spacing" textLength="87">lookTransform</text><line style="stroke:#000;stroke-width:1.5" x1="323" x2="596" y1="148.469" y2="148.469"/><text x="328" y="161.751" fill="#000" font-family="sans-serif" font-size="10" lengthAdjust="spacing" textLength="134">aces:lookTransformType</text><line style="stroke:#000;stroke-width:1;stroke-dasharray:1,2" x1="323" x2="596" y1="168.109" y2="168.109"/><ellipse cx="333" cy="179.109" rx="3" ry="3" style="stroke:#038048;stroke-width:1;fill:none"/><text x="342" y="181.392" fill="#000" font-family="sans-serif" font-size="10" lengthAdjust="spacing" textLength="88">applied : xs:bool</text><rect width="275" height="45.609" x="322" fill="#FFF" style="stroke:#000;stroke-width:1.5" y="198"/><text x="410" y="211.139" fill="#000" font-family="sans-serif" font-size="12" lengthAdjust="spacing" textLength="99">outputTransform</text><line style="stroke:#000;stroke-width:1.5" x1="323" x2="596" y1="215.969" y2="215.969"/><text x="328" y="229.251" fill="#000" font-family="sans-serif" font-size="10" lengthAdjust="spacing" textLength="147">aces:outputTransformType</text><line style="stroke:#000;stroke-width:1;stroke-dasharray:1,2" x1="323" x2="596" y1="235.609" y2="235.609"/><path id="pipeline-to-pipelineInfo" fill="none" d="M145,102.761 C145,74.35 145,30 145,30 C145,30 316.556,30 316.556,30" codeLine="40" style="stroke:#000;stroke-width:1"/><polygon fill="#000" points="321.556 30 312.556 26 316.556 30 312.556 34 321.556 30" style="stroke:#000;stroke-width:1"/><path id="pipeline-to-inputTransform" fill="none" d="M282.205,111.75 C282.205,111.75 316.627,111.75 316.627,111.75" codeLine="41" style="stroke:#000;stroke-width:1"/><polygon fill="#000" points="321.627 111.75 312.627 107.75 316.627 111.75 312.627 115.75 321.627 111.75" style="stroke:#000;stroke-width:1"/><path id="pipeline-to-lookTransform" fill="none" d="M282.205,139.75 C282.205,139.75 316.627,139.75 316.627,139.75" codeLine="42" style="stroke:#000;stroke-width:1"/><polygon fill="#000" points="321.627 139.75 312.627 135.75 316.627 139.75 312.627 143.75 321.627 139.75" style="stroke:#000;stroke-width:1"/><path id="pipeline-to-outputTransform" fill="none" d="M145,149.4832 C145,177.6154 145,221 145,221 C145,221 316.556,221 316.556,221" codeLine="43" style="stroke:#000;stroke-width:1"/><polygon fill="#000" points="321.556 221 312.556 217 316.556 221 312.556 225 321.556 221" style="stroke:#000;stroke-width:1"/></g></svg>