<svg xmlns="http://www.w3.org/2000/svg" xmlns:xlink="http://www.w3.org/1999/xlink" width="1233" height="668" contentScriptType="application/ecmascript" contentStyleType="text/css" preserveAspectRatio="none" style="width:1233px;height:668px" version="1.1" viewBox="0 0 1233 668" zoomAndPan="magnify"><g><rect width="275" height="57.25" x="7" fill="#FFF" style="stroke:#000;stroke-width:1.5" y="358.5"/><text x="101" y="371.639" fill="#000" font-family="sans-serif" font-size="12" lengthAdjust="spacing" textLength="87">lookTransform</text><line style="stroke:#000;stroke-width:1.5" x1="8" x2="281" y1="376.469" y2="376.469"/><text x="13" y="389.751" fill="#000" font-family="sans-serif" font-size="10" lengthAdjust="spacing" textLength="134">aces:lookTransformType</text><line style="stroke:#000;stroke-width:1;stroke-dasharray:1,2" x1="8" x2="281" y1="396.109" y2="396.109"/><ellipse cx="18" cy="407.109" rx="3" ry="3" style="stroke:#038048;stroke-width:1;fill:none"/><text x="27" y="409.392" fill="#000" font-family="sans-serif" font-size="10" lengthAdjust="spacing" textLength="88">applied : xs:bool</text><rect width="275" height="45.609" x="322" fill="#FFF" style="stroke:#000;stroke-width:1.5" y="128"/><text x="425.5" y="141.139" fill="#000" font-family="sans-serif" font-size="12" lengthAdjust="spacing" textLength="68">description</text><line style="stroke:#000;stroke-width:1.5" x1="323" x2="596" y1="145.969" y2="145.969"/><text x="328" y="159.251" fill="#000" font-family="sans-serif" font-size="10" lengthAdjust="spacing" textLength="47">xs: string</text><line style="stroke:#000;stroke-width:1;stroke-dasharray:1,2" x1="323" x2="596" y1="165.609" y2="165.609"/><rect width="275" height="57.25" x="322" fill="#FFF" style="stroke:#000;stroke-width:1.5" y="184.5"/><text x="445.5" y="197.639" fill="#000" font-family="sans-serif" font-size="12" lengthAdjust="spacing" textLength="28">hash</text><line style="stroke:#000;stroke-width:1.5" x1="323" x2="596" y1="202.469" y2="202.469"/><text x="328" y="215.751" fill="#000" font-family="sans-serif" font-size="10" lengthAdjust="spacing" textLength="81">aces:hashType</text><line style="stroke:#000;stroke-width:1;stroke-dasharray:1,2" x1="323" x2="596" y1="222.109" y2="222.109"/><ellipse cx="333" cy="233.109" rx="3" ry="3" style="stroke:#038048;stroke-width:1;fill:none"/><text x="342" y="235.392" fill="#000" font-family="sans-serif" font-size="10" lengthAdjust="spacing" textLength="167">algorithm : aces:hashAlgoType</text><rect width="275" height="45.609" x="322" fill="#FFF" style="stroke:#000;stroke-width:1.5" y="252"/><text x="447" y="265.139" fill="#000" font-family="sans-serif" font-size="12" lengthAdjust="spacing" textLength="25">uuid</text><line style="stroke:#000;stroke-width:1.5" x1="323" x2="596" y1="269.969" y2="269.969"/><text x="328" y="283.251" fill="#000" font-family="sans-serif" font-size="10" lengthAdjust="spacing" textLength="84">dcml:UUIDType</text><line style="stroke:#000;stroke-width:1;stroke-dasharray:1,2" x1="323" x2="596" y1="289.609" y2="289.609"/><rect width="275" height="45.609" x="322" fill="#FFF" style="stroke:#000;stroke-width:1.5" y="308"/><text x="450.5" y="321.139" fill="#000" font-family="sans-serif" font-size="12" lengthAdjust="spacing" textLength="18">file</text><line style="stroke:#000;stroke-width:1.5" x1="323" x2="596" y1="325.969" y2="325.969"/><text x="328" y="339.251" fill="#000" font-family="sans-serif" font-size="10" lengthAdjust="spacing" textLength="52">xs:anyURI</text><line style="stroke:#000;stroke-width:1;stroke-dasharray:1,2" x1="323" x2="596" y1="345.609" y2="345.609"/><rect width="275" height="45.609" x="322" fill="#FFF" style="stroke:#000;stroke-width:1.5" y="364"/><text x="425" y="377.139" fill="#000" font-family="sans-serif" font-size="12" lengthAdjust="spacing" textLength="69">transformId</text><line style="stroke:#000;stroke-width:1.5" x1="323" x2="596" y1="381.969" y2="381.969"/><text x="328" y="395.251" fill="#000" font-family="sans-serif" font-size="10" lengthAdjust="spacing" textLength="121">aces:tnLookTransform</text><line style="stroke:#000;stroke-width:1;stroke-dasharray:1,2" x1="323" x2="596" y1="401.609" y2="401.609"/><rect width="275" height="45.609" x="637" fill="#FFF" style="stroke:#000;stroke-width:1.5" y="159"/><text x="715" y="172.139" fill="#000" font-family="sans-serif" font-size="12" lengthAdjust="spacing" textLength="119">toCdlWorkingSpace</text><line style="stroke:#000;stroke-width:1.5" x1="638" x2="911" y1="176.969" y2="176.969"/><text x="643" y="190.251" fill="#000" font-family="sans-serif" font-size="10" lengthAdjust="spacing" textLength="162">aces:toCdlWorkingSpaceType</text><line style="stroke:#000;stroke-width:1;stroke-dasharray:1,2" x1="638" x2="911" y1="196.609" y2="196.609"/><rect width="275" height="45.609" x="952" fill="#FFF" style="stroke:#000;stroke-width:1.5" y="7"/><text x="1055.5" y="20.139" fill="#000" font-family="sans-serif" font-size="12" lengthAdjust="spacing" textLength="68">description</text><line style="stroke:#000;stroke-width:1.5" x1="953" x2="1226" y1="24.969" y2="24.969"/><text x="958" y="38.251" fill="#000" font-family="sans-serif" font-size="10" lengthAdjust="spacing" textLength="47">xs: string</text><line style="stroke:#000;stroke-width:1;stroke-dasharray:1,2" x1="953" x2="1226" y1="44.609" y2="44.609"/><rect width="275" height="57.25" x="952" fill="#FFF" style="stroke:#000;stroke-width:1.5" y="63.5"/><text x="1075.5" y="76.639" fill="#000" font-family="sans-serif" font-size="12" lengthAdjust="spacing" textLength="28">hash</text><line style="stroke:#000;stroke-width:1.5" x1="953" x2="1226" y1="81.469" y2="81.469"/><text x="958" y="94.751" fill="#000" font-family="sans-serif" font-size="10" lengthAdjust="spacing" textLength="81">aces:hashType</text><line style="stroke:#000;stroke-width:1;stroke-dasharray:1,2" x1="953" x2="1226" y1="101.109" y2="101.109"/><ellipse cx="963" cy="112.109" rx="3" ry="3" style="stroke:#038048;stroke-width:1;fill:none"/><text x="972" y="114.392" fill="#000" font-family="sans-serif" font-size="10" lengthAdjust="spacing" textLength="167">algorithm : aces:hashAlgoType</text><rect width="275" height="45.609" x="952" fill="#FFF" style="stroke:#000;stroke-width:1.5" y="131"/><text x="1077" y="144.139" fill="#000" font-family="sans-serif" font-size="12" lengthAdjust="spacing" textLength="25">uuid</text><line style="stroke:#000;stroke-width:1.5" x1="953" x2="1226" y1="148.969" y2="148.969"/><text x="958" y="162.251" fill="#000" font-family="sans-serif" font-size="10" lengthAdjust="spacing" textLength="84">dcml:UUIDType</text><line style="stroke:#000;stroke-width:1;stroke-dasharray:1,2" x1="953" x2="1226" y1="168.609" y2="168.609"/><rect width="275" height="45.609" x="952" fill="#FFF" style="stroke:#000;stroke-width:1.5" y="187"/><text x="1080.5" y="200.139" fill="#000" font-family="sans-serif" font-size="12" lengthAdjust="spacing" textLength="18">file</text><line style="stroke:#000;stroke-width:1.5" x1="953" x2="1226" y1="204.969" y2="204.969"/><text x="958" y="218.251" fill="#000" font-family="sans-serif" font-size="10" lengthAdjust="spacing" textLength="52">xs:anyURI</text><line style="stroke:#000;stroke-width:1;stroke-dasharray:1,2" x1="953" x2="1226" y1="224.609" y2="224.609"/><rect width="275" height="45.609" x="952" fill="#FFF" style="stroke:#000;stroke-width:1.5" y="243"/><text x="1055" y="256.139" fill="#000" font-family="sans-serif" font-size="12" lengthAdjust="spacing" textLength="69">transformId</text><line style="stroke:#000;stroke-width:1.5" x1="953" x2="1226" y1="260.969" y2="260.969"/><text x="958" y="274.251" fill="#000" font-family="sans-serif" font-size="10" lengthAdjust="spacing" textLength="219">aces:tnColorSpaceConversionTransform</text><line style="stroke:#000;stroke-width:1;stroke-dasharray:1,2" x1="953" x2="1226" y1="280.609" y2="280.609"/><rect width="275" height="45.609" x="637" fill="#FFF" style="stroke:#000;stroke-width:1.5" y="392"/><text x="707" y="405.139" fill="#000" font-family="sans-serif" font-size="12" lengthAdjust="spacing" textLength="135">fromCdlWorkingSpace</text><line style="stroke:#000;stroke-width:1.5" x1="638" x2="911" y1="409.969" y2="409.969"/><text x="643" y="423.251" fill="#000" font-family="sans-serif" font-size="10" lengthAdjust="spacing" textLength="177">aces:fromCdlWorkingSpaceType</text><line style="stroke:#000;stroke-width:1;stroke-dasharray:1,2" x1="638" x2="911" y1="429.609" y2="429.609"/><rect width="275" height="45.609" x="952" fill="#FFF" style="stroke:#000;stroke-width:1.5" y="299"/><text x="1055.5" y="312.139" fill="#000" font-family="sans-serif" font-size="12" lengthAdjust="spacing" textLength="68">description</text><line style="stroke:#000;stroke-width:1.5" x1="953" x2="1226" y1="316.969" y2="316.969"/><text x="958" y="330.251" fill="#000" font-family="sans-serif" font-size="10" lengthAdjust="spacing" textLength="47">xs: string</text><line style="stroke:#000;stroke-width:1;stroke-dasharray:1,2" x1="953" x2="1226" y1="336.609" y2="336.609"/><rect width="275" height="57.25" x="952" fill="#FFF" style="stroke:#000;stroke-width:1.5" y="355.5"/><text x="1075.5" y="368.639" fill="#000" font-family="sans-serif" font-size="12" lengthAdjust="spacing" textLength="28">hash</text><line style="stroke:#000;stroke-width:1.5" x1="953" x2="1226" y1="373.469" y2="373.469"/><text x="958" y="386.751" fill="#000" font-family="sans-serif" font-size="10" lengthAdjust="spacing" textLength="81">aces:hashType</text><line style="stroke:#000;stroke-width:1;stroke-dasharray:1,2" x1="953" x2="1226" y1="393.109" y2="393.109"/><ellipse cx="963" cy="404.109" rx="3" ry="3" style="stroke:#038048;stroke-width:1;fill:none"/><text x="972" y="406.392" fill="#000" font-family="sans-serif" font-size="10" lengthAdjust="spacing" textLength="167">algorithm : aces:hashAlgoType</text><rect width="275" height="45.609" x="952" fill="#FFF" style="stroke:#000;stroke-width:1.5" y="423"/><text x="1077" y="436.139" fill="#000" font-family="sans-serif" font-size="12" lengthAdjust="spacing" textLength="25">uuid</text><line style="stroke:#000;stroke-width:1.5" x1="953" x2="1226" y1="440.969" y2="440.969"/><text x="958" y="454.251" fill="#000" font-family="sans-serif" font-size="10" lengthAdjust="spacing" textLength="84">dcml:UUIDType</text><line style="stroke:#000;stroke-width:1;stroke-dasharray:1,2" x1="953" x2="1226" y1="460.609" y2="460.609"/><rect width="275" height="45.609" x="952" fill="#FFF" style="stroke:#000;stroke-width:1.5" y="479"/><text x="1080.5" y="492.139" fill="#000" font-family="sans-serif" font-size="12" lengthAdjust="spacing" textLength="18">file</text><line style="stroke:#000;stroke-width:1.5" x1="953" x2="1226" y1="496.969" y2="496.969"/><text x="958" y="510.251" fill="#000" font-family="sans-serif" font-size="10" lengthAdjust="spacing" textLength="52">xs:anyURI</text><line style="stroke:#000;stroke-width:1;stroke-dasharray:1,2" x1="953" x2="1226" y1="516.609" y2="516.609"/><rect width="275" height="45.609" x="952" fill="#FFF" style="stroke:#000;stroke-width:1.5" y="535"/><text x="1055" y="548.139" fill="#000" font-family="sans-serif" font-size="12" lengthAdjust="spacing" textLength="69">transformId</text><line style="stroke:#000;stroke-width:1.5" x1="953" x2="1226" y1="552.969" y2="552.969"/><text x="958" y="566.251" fill="#000" font-family="sans-serif" font-size="10" lengthAdjust="spacing" textLength="219">aces:tnColorSpaceConversionTransform</text><line style="stroke:#000;stroke-width:1;stroke-dasharray:1,2" x1="953" x2="1226" y1="572.609" y2="572.609"/><rect width="275" height="45.609" x="322" fill="#FFF" style="stroke:#000;stroke-width:1.5" y="420"/><text x="406.5" y="433.139" fill="#000" font-family="sans-serif" font-size="12" lengthAdjust="spacing" textLength="106">cdlWorkingSpace</text><line style="stroke:#000;stroke-width:1.5" x1="323" x2="596" y1="437.969" y2="437.969"/><text x="328" y="451.251" fill="#000" font-family="sans-serif" font-size="10" lengthAdjust="spacing" textLength="149">aces:cdlWorkingSpaceType</text><line style="stroke:#000;stroke-width:1;stroke-dasharray:1,2" x1="323" x2="596" y1="457.609" y2="457.609"/><rect width="275" height="45.609" x="322" fill="#FFF" style="stroke:#000;stroke-width:1.5" y="476"/><text x="420.5" y="489.139" fill="#000" font-family="sans-serif" font-size="12" lengthAdjust="spacing" textLength="78">cdl:SOPNode</text><line style="stroke:#000;stroke-width:1.5" x1="323" x2="596" y1="493.969" y2="493.969"/><text x="328" y="507.251" fill="#000" font-family="sans-serif" font-size="10" lengthAdjust="spacing" textLength="97">cdl:SOPNodeType</text><line style="stroke:#000;stroke-width:1;stroke-dasharray:1,2" x1="323" x2="596" y1="513.609" y2="513.609"/><rect width="275" height="45.609" x="322" fill="#FFF" style="stroke:#000;stroke-width:1.5" y="532"/><text x="423" y="545.139" fill="#000" font-family="sans-serif" font-size="12" lengthAdjust="spacing" textLength="73">cdl:SatNode</text><line style="stroke:#000;stroke-width:1.5" x1="323" x2="596" y1="549.969" y2="549.969"/><text x="328" y="563.251" fill="#000" font-family="sans-serif" font-size="10" lengthAdjust="spacing" textLength="93">cdl:SatNodeType</text><line style="stroke:#000;stroke-width:1;stroke-dasharray:1,2" x1="323" x2="596" y1="569.609" y2="569.609"/><rect width="275" height="57.25" x="322" fill="#FFF" style="stroke:#000;stroke-width:1.5" y="588.5"/><text x="391.5" y="601.639" fill="#000" font-family="sans-serif" font-size="12" lengthAdjust="spacing" textLength="136">cdl:ColorCorrectionRef</text><line style="stroke:#000;stroke-width:1.5" x1="323" x2="596" y1="606.469" y2="606.469"/><text x="328" y="619.751" fill="#000" font-family="sans-serif" font-size="10" lengthAdjust="spacing" textLength="150">cdl:ColorCorrectionRefType</text><line style="stroke:#000;stroke-width:1;stroke-dasharray:1,2" x1="323" x2="596" y1="626.109" y2="626.109"/><ellipse cx="333" cy="637.109" rx="3" ry="3" style="stroke:#038048;stroke-width:1;fill:none"/><text x="342" y="639.392" fill="#000" font-family="sans-serif" font-size="10" lengthAdjust="spacing" textLength="76">ref : xs:anyURI</text><rect width="275" height="45.609" x="637" fill="#FFF" style="stroke:#000;stroke-width:1.5" y="448"/><text x="746" y="461.139" fill="#000" font-family="sans-serif" font-size="12" lengthAdjust="spacing" textLength="57">cdl:Slope</text><line style="stroke:#000;stroke-width:1.5" x1="638" x2="911" y1="465.969" y2="465.969"/><text x="643" y="479.251" fill="#000" font-family="sans-serif" font-size="10" lengthAdjust="spacing" textLength="161">cdl:nonNegativeFloatListType</text><line style="stroke:#000;stroke-width:1;stroke-dasharray:1,2" x1="638" x2="911" y1="485.609" y2="485.609"/><rect width="275" height="45.609" x="637" fill="#FFF" style="stroke:#000;stroke-width:1.5" y="504"/><text x="745" y="517.139" fill="#000" font-family="sans-serif" font-size="12" lengthAdjust="spacing" textLength="59">cdl:Offset</text><line style="stroke:#000;stroke-width:1.5" x1="638" x2="911" y1="521.969" y2="521.969"/><text x="643" y="535.251" fill="#000" font-family="sans-serif" font-size="10" lengthAdjust="spacing" textLength="89">cdl:floatListType</text><line style="stroke:#000;stroke-width:1;stroke-dasharray:1,2" x1="638" x2="911" y1="541.609" y2="541.609"/><rect width="275" height="45.609" x="637" fill="#FFF" style="stroke:#000;stroke-width:1.5" y="560"/><text x="745" y="573.139" fill="#000" font-family="sans-serif" font-size="12" lengthAdjust="spacing" textLength="59">cdl:Power</text><line style="stroke:#000;stroke-width:1.5" x1="638" x2="911" y1="577.969" y2="577.969"/><text x="643" y="591.251" fill="#000" font-family="sans-serif" font-size="10" lengthAdjust="spacing" textLength="133">cdl:positiveFloatListType</text><line style="stroke:#000;stroke-width:1;stroke-dasharray:1,2" x1="638" x2="911" y1="597.609" y2="597.609"/><rect width="275" height="45.609" x="637" fill="#FFF" style="stroke:#000;stroke-width:1.5" y="616"/><text x="733.5" y="629.139" fill="#000" font-family="sans-serif" font-size="12" lengthAdjust="spacing" textLength="82">cdl:Saturation</text><line style="stroke:#000;stroke-width:1.5" x1="638" x2="911" y1="633.969" y2="633.969"/><text x="643" y="647.251" fill="#000" font-family="sans-serif" font-size="10" lengthAdjust="spacing" textLength="143">cdl:nonNegativeFloatType</text><line style="stroke:#000;stroke-width:1;stroke-dasharray:1,2" x1="638" x2="911" y1="653.609" y2="653.609"/><path id="lookTransform.root-to-lookTransform.description" fill="none" d="M62,358.062 C62,295.043 62,151 62,151 C62,151 316.868,151 316.868,151" codeLine="50" style="stroke:#000;stroke-width:1"/><polygon fill="#000" points="321.868 151 312.868 147 316.868 151 312.868 155 321.868 151" style="stroke:#000;stroke-width:1"/><path id="lookTransform.root-to-lookTransform.hash" fill="none" d="M117,358.267 C117,308.847 117,213 117,213 C117,213 316.673,213 316.673,213" codeLine="51" style="stroke:#000;stroke-width:1"/><polygon fill="#000" points="321.673 213 312.673 209 316.673 213 312.673 217 321.673 213" style="stroke:#000;stroke-width:1"/><path id="lookTransform.root-to-lookTransform.uuid" fill="none" d="M172,358.448 C172,325.265 172,275 172,275 C172,275 316.645,275 316.645,275" codeLine="52" style="stroke:#000;stroke-width:1"/><polygon fill="#000" points="321.645 275 312.645 271 316.645 275 312.645 279 321.645 275" style="stroke:#000;stroke-width:1"/><path id="lookTransform.root-to-lookTransform.file" fill="none" d="M227,358.344 C227,344.566 227,331 227,331 C227,331 316.902,331 316.902,331" codeLine="53" style="stroke:#000;stroke-width:1"/><polygon fill="#000" points="321.902 331 312.902 327 316.902 331 312.902 335 321.902 331" style="stroke:#000;stroke-width:1"/><path id="lookTransform.root-to-lookTransform.transformId" fill="none" d="M282.205,387 C282.205,387 316.627,387 316.627,387" codeLine="54" style="stroke:#000;stroke-width:1"/><polygon fill="#000" points="321.627 387 312.627 383 316.627 387 312.627 391 321.627 387" style="stroke:#000;stroke-width:1"/><path id="toCdlWorkingSpace.root-to-toCdlWorkingSpace.description" fill="none" d="M729,158.914 C729,116.393 729,30 729,30 C729,30 946.925,30 946.925,30" codeLine="50" style="stroke:#000;stroke-width:1"/><polygon fill="#000" points="951.925 30 942.925 26 946.925 30 942.925 34 951.925 30" style="stroke:#000;stroke-width:1"/><path id="toCdlWorkingSpace.root-to-toCdlWorkingSpace.hash" fill="none" d="M821,158.823 C821,132.156 821,92 821,92 C821,92 946.711,92 946.711,92" codeLine="51" style="stroke:#000;stroke-width:1"/><polygon fill="#000" points="951.711 92 942.711 88 946.711 92 942.711 96 951.711 92" style="stroke:#000;stroke-width:1"/><path id="toCdlWorkingSpace.root-to-toCdlWorkingSpace.uuid" fill="none" d="M912.205,168 C912.205,168 946.627,168 946.627,168" codeLine="52" style="stroke:#000;stroke-width:1"/><polygon fill="#000" points="951.627 168 942.627 164 946.627 168 942.627 172 951.627 168" style="stroke:#000;stroke-width:1"/><path id="toCdlWorkingSpace.root-to-toCdlWorkingSpace.file" fill="none" d="M912.205,196 C912.205,196 946.627,196 946.627,196" codeLine="53" style="stroke:#000;stroke-width:1"/><polygon fill="#000" points="951.627 196 942.627 192 946.627 196 942.627 200 951.627 196" style="stroke:#000;stroke-width:1"/><path id="toCdlWorkingSpace.root-to-toCdlWorkingSpace.transformId" fill="none" d="M821,205.277 C821,224.104 821,247.5 821,247.5 C821,247.5 946.711,247.5 946.711,247.5" codeLine="54" style="stroke:#000;stroke-width:1"/><polygon fill="#000" points="951.711 247.5 942.711 243.5 946.711 247.5 942.711 251.5 951.711 247.5" style="stroke:#000;stroke-width:1"/><path id="fromCdlWorkingSpace.root-to-fromCdlWorkingSpace.description" fill="none" d="M729,391.748 C729,365.527 729,326.5 729,326.5 C729,326.5 946.925,326.5 946.925,326.5" codeLine="50" style="stroke:#000;stroke-width:1"/><polygon fill="#000" points="951.925 326.5 942.925 322.5 946.925 326.5 942.925 330.5 951.925 326.5" style="stroke:#000;stroke-width:1"/><path id="fromCdlWorkingSpace.root-to-fromCdlWorkingSpace.hash" fill="none" d="M912.205,402.25 C912.205,402.25 946.627,402.25 946.627,402.25" codeLine="51" style="stroke:#000;stroke-width:1"/><polygon fill="#000" points="951.627 402.25 942.627 398.25 946.627 402.25 942.627 406.25 951.627 402.25" style="stroke:#000;stroke-width:1"/><path id="fromCdlWorkingSpace.root-to-fromCdlWorkingSpace.uuid" fill="none" d="M912.205,426.75 C912.205,426.75 946.627,426.75 946.627,426.75" codeLine="52" style="stroke:#000;stroke-width:1"/><polygon fill="#000" points="951.627 426.75 942.627 422.75 946.627 426.75 942.627 430.75 951.627 426.75" style="stroke:#000;stroke-width:1"/><path id="fromCdlWorkingSpace.root-to-fromCdlWorkingSpace.file" fill="none" d="M912.204,430.5 C928.231,430.5 939,430.5 939,430.5 C939,430.5 939,486.5 939,486.5 C939,486.5 946.832,486.5 946.832,486.5" codeLine="53" style="stroke:#000;stroke-width:1"/><polygon fill="#000" points="951.832 486.5 942.832 482.5 946.832 486.5 942.832 490.5 951.832 486.5" style="stroke:#000;stroke-width:1"/><path id="fromCdlWorkingSpace.root-to-fromCdlWorkingSpace.transformId" fill="none" d="M912.019,434.25 C920.674,434.25 926,434.25 926,434.25 C926,434.25 926,542.5 926,542.5 C926,542.5 946.907,542.5 946.907,542.5" codeLine="54" style="stroke:#000;stroke-width:1"/><polygon fill="#000" points="951.907 542.5 942.907 538.5 946.907 542.5 942.907 546.5 951.907 542.5" style="stroke:#000;stroke-width:1"/><path id="lookTransform.root-to-lookTransform.cdlWorkingSpace" fill="none" d="M227,415.656 C227,429.434 227,443 227,443 C227,443 316.902,443 316.902,443" codeLine="96" style="stroke:#000;stroke-width:1"/><polygon fill="#000" points="321.902 443 312.902 439 316.902 443 312.902 447 321.902 443" style="stroke:#000;stroke-width:1"/><path id="lookTransform.root-to-lookTransform.cdlSOPNode" fill="none" d="M172,415.552 C172,448.735 172,499 172,499 C172,499 316.645,499 316.645,499" codeLine="97" style="stroke:#000;stroke-width:1"/><polygon fill="#000" points="321.645 499 312.645 495 316.645 499 312.645 503 321.645 499" style="stroke:#000;stroke-width:1"/><path id="lookTransform.root-to-lookTransform.cdlSatNode" fill="none" d="M117,415.88 C117,463.914 117,555 117,555 C117,555 316.673,555 316.673,555" codeLine="98" style="stroke:#000;stroke-width:1"/><polygon fill="#000" points="321.673 555 312.673 551 316.673 555 312.673 559 321.673 555" style="stroke:#000;stroke-width:1"/><path id="lookTransform.root-to-lookTransform.cdlColorCorrectionRef" fill="none" d="M62,415.665 C62,477.32 62,617 62,617 C62,617 316.868,617 316.868,617" codeLine="99" style="stroke:#000;stroke-width:1"/><polygon fill="#000" points="321.868 617 312.868 613 316.868 617 312.868 621 321.868 617" style="stroke:#000;stroke-width:1"/><path id="lookTransform.cdlWorkingSpace-to-toCdlWorkingSpace.root" fill="none" d="M597.322,426 C603.399,426 607,426 607,426 C607,426 607,194.75 607,194.75 C607,194.75 631.946,194.75 631.946,194.75" codeLine="101" style="stroke:#000;stroke-width:1"/><polygon fill="#000" points="636.946 194.75 627.946 190.75 631.946 194.75 627.946 198.75 636.946 194.75" style="stroke:#000;stroke-width:1"/><path id="lookTransform.cdlWorkingSpace-to-fromCdlWorkingSpace.root" fill="none" d="M597.205,432 C597.205,432 631.627,432 631.627,432" codeLine="102" style="stroke:#000;stroke-width:1"/><polygon fill="#000" points="636.627 432 627.627 428 631.627 432 627.627 436 636.627 432" style="stroke:#000;stroke-width:1"/><path id="lookTransform.cdlSOPNode-to-lookTransform.cdlSlope" fill="none" d="M597.205,485 C597.205,485 631.627,485 631.627,485" codeLine="104" style="stroke:#000;stroke-width:1"/><polygon fill="#000" points="636.627 485 627.627 481 631.627 485 627.627 489 636.627 485" style="stroke:#000;stroke-width:1"/><path id="lookTransform.cdlSOPNode-to-lookTransform.cdlOffset" fill="none" d="M597.205,510 C597.205,510 631.627,510 631.627,510" codeLine="105" style="stroke:#000;stroke-width:1"/><polygon fill="#000" points="636.627 510 627.627 506 631.627 510 627.627 514 636.627 510" style="stroke:#000;stroke-width:1"/><path id="lookTransform.cdlSOPNode-to-lookTransform.cdlPower" fill="none" d="M597.054,516 C614.832,516 627,516 627,516 C627,516 627,566 627,566 C627,566 631.678,566 631.678,566" codeLine="106" style="stroke:#000;stroke-width:1"/><polygon fill="#000" points="636.678 566 627.678 562 631.678 566 627.678 570 636.678 566" style="stroke:#000;stroke-width:1"/><path id="lookTransform.cdlSatNode-to-lookTransform.cdlSaturation" fill="none" d="M597.053,572 C609.192,572 617,572 617,572 C617,572 617,630.75 617,630.75 C617,630.75 631.947,630.75 631.947,630.75" codeLine="108" style="stroke:#000;stroke-width:1"/><polygon fill="#000" points="636.947 630.75 627.947 626.75 631.947 630.75 627.947 634.75 636.947 630.75" style="stroke:#000;stroke-width:1"/></g></svg>