<svg xmlns="http://www.w3.org/2000/svg" xmlns:xlink="http://www.w3.org/1999/xlink" width="918" height="227" contentScriptType="application/ecmascript" contentStyleType="text/css" preserveAspectRatio="none" style="width:918px;height:227px" version="1.1" viewBox="0 0 918 227" zoomAndPan="magnify"><g><rect width="275" height="45.609" x="7" fill="#FFF" style="stroke:#000;stroke-width:1.5" y="91"/><text x="122.5" y="104.139" fill="#000" font-family="sans-serif" font-size="12" lengthAdjust="spacing" textLength="44">amfInfo</text><line style="stroke:#000;stroke-width:1.5" x1="8" x2="281" y1="108.969" y2="108.969"/><text x="13" y="122.251" fill="#000" font-family="sans-serif" font-size="10" lengthAdjust="spacing" textLength="76">aces:infoType</text><line style="stroke:#000;stroke-width:1;stroke-dasharray:1,2" x1="8" x2="281" y1="128.609" y2="128.609"/><rect width="275" height="45.609" x="322" fill="#FFF" style="stroke:#000;stroke-width:1.5" y="8"/><text x="425.5" y="21.139" fill="#000" font-family="sans-serif" font-size="12" lengthAdjust="spacing" textLength="68">description</text><line style="stroke:#000;stroke-width:1.5" x1="323" x2="596" y1="25.969" y2="25.969"/><text x="328" y="39.251" fill="#000" font-family="sans-serif" font-size="10" lengthAdjust="spacing" textLength="44">xs:string</text><line style="stroke:#000;stroke-width:1;stroke-dasharray:1,2" x1="323" x2="596" y1="45.609" y2="45.609"/><rect width="275" height="45.609" x="322" fill="#FFF" style="stroke:#000;stroke-width:1.5" y="64"/><text x="440.5" y="77.139" fill="#000" font-family="sans-serif" font-size="12" lengthAdjust="spacing" textLength="38">author</text><line style="stroke:#000;stroke-width:1.5" x1="323" x2="596" y1="81.969" y2="81.969"/><text x="328" y="95.251" fill="#000" font-family="sans-serif" font-size="10" lengthAdjust="spacing" textLength="91">aces:authorType</text><line style="stroke:#000;stroke-width:1;stroke-dasharray:1,2" x1="323" x2="596" y1="101.609" y2="101.609"/><rect width="275" height="45.609" x="637" fill="#FFF" style="stroke:#000;stroke-width:1.5" y="7"/><text x="758" y="20.139" fill="#000" font-family="sans-serif" font-size="12" lengthAdjust="spacing" textLength="33">name</text><line style="stroke:#000;stroke-width:1.5" x1="638" x2="911" y1="24.969" y2="24.969"/><text x="643" y="38.251" fill="#000" font-family="sans-serif" font-size="10" lengthAdjust="spacing" textLength="44">xs:string</text><line style="stroke:#000;stroke-width:1;stroke-dasharray:1,2" x1="638" x2="911" y1="44.609" y2="44.609"/><rect width="275" height="45.609" x="637" fill="#FFF" style="stroke:#000;stroke-width:1.5" y="63"/><text x="733" y="76.139" fill="#000" font-family="sans-serif" font-size="12" lengthAdjust="spacing" textLength="83">emailAddress</text><line style="stroke:#000;stroke-width:1.5" x1="638" x2="911" y1="80.969" y2="80.969"/><text x="643" y="94.251" fill="#000" font-family="sans-serif" font-size="10" lengthAdjust="spacing" textLength="128">aces:emailAddressType</text><line style="stroke:#000;stroke-width:1;stroke-dasharray:1,2" x1="638" x2="911" y1="100.609" y2="100.609"/><rect width="275" height="37.609" x="322" fill="#FFF" style="stroke:#000;stroke-width:1.5" y="121"/><text x="431.5" y="134.139" fill="#000" font-family="sans-serif" font-size="12" lengthAdjust="spacing" textLength="56">dateTime</text><line style="stroke:#000;stroke-width:1.5" x1="323" x2="596" y1="138.969" y2="138.969"/><text x="328" y="152.251" fill="#000" font-family="sans-serif" font-size="10" lengthAdjust="spacing" textLength="108">aces:dateTimeType</text><rect width="275" height="45.609" x="637" fill="#FFF" style="stroke:#000;stroke-width:1.5" y="119"/><text x="721.5" y="132.139" fill="#000" font-family="sans-serif" font-size="12" lengthAdjust="spacing" textLength="106">creationDateTime</text><line style="stroke:#000;stroke-width:1.5" x1="638" x2="911" y1="136.969" y2="136.969"/><text x="643" y="150.251" fill="#000" font-family="sans-serif" font-size="10" lengthAdjust="spacing" textLength="67">xs:dateTime</text><line style="stroke:#000;stroke-width:1;stroke-dasharray:1,2" x1="638" x2="911" y1="156.609" y2="156.609"/><rect width="275" height="45.609" x="637" fill="#FFF" style="stroke:#000;stroke-width:1.5" y="175"/><text x="709.5" y="188.139" fill="#000" font-family="sans-serif" font-size="12" lengthAdjust="spacing" textLength="130">modificationDateTime</text><line style="stroke:#000;stroke-width:1.5" x1="638" x2="911" y1="192.969" y2="192.969"/><text x="643" y="206.251" fill="#000" font-family="sans-serif" font-size="10" lengthAdjust="spacing" textLength="67">xs:dateTime</text><line style="stroke:#000;stroke-width:1;stroke-dasharray:1,2" x1="638" x2="911" y1="212.609" y2="212.609"/><rect width="275" height="45.609" x="322" fill="#FFF" style="stroke:#000;stroke-width:1.5" y="169"/><text x="447" y="182.139" fill="#000" font-family="sans-serif" font-size="12" lengthAdjust="spacing" textLength="25">uuid</text><line style="stroke:#000;stroke-width:1.5" x1="323" x2="596" y1="186.969" y2="186.969"/><text x="328" y="200.251" fill="#000" font-family="sans-serif" font-size="10" lengthAdjust="spacing" textLength="84">dcml:UUIDType</text><line style="stroke:#000;stroke-width:1;stroke-dasharray:1,2" x1="323" x2="596" y1="206.609" y2="206.609"/><path id="amfInfo.root-to-amfInfo.description" fill="none" d="M145,90.88 C145,66.321 145,31 145,31 C145,31 316.556,31 316.556,31" codeLine="54" style="stroke:#000;stroke-width:1"/><polygon fill="#000" points="321.556 31 312.556 27 316.556 31 312.556 35 321.556 31" style="stroke:#000;stroke-width:1"/><path id="amfInfo.root-to-amfInfo.author" fill="none" d="M282.205,100.5 C282.205,100.5 316.627,100.5 316.627,100.5" codeLine="55" style="stroke:#000;stroke-width:1"/><polygon fill="#000" points="321.627 100.5 312.627 96.5 316.627 100.5 312.627 104.5 321.627 100.5" style="stroke:#000;stroke-width:1"/><path id="amfInfo.root-to-amfInfo.dateTime" fill="none" d="M282.205,129 C282.205,129 316.627,129 316.627,129" codeLine="56" style="stroke:#000;stroke-width:1"/><polygon fill="#000" points="321.627 129 312.627 125 316.627 129 312.627 133 321.627 129" style="stroke:#000;stroke-width:1"/><path id="amfInfo.root-to-amfInfo.uuid" fill="none" d="M145,137.4026 C145,160.378 145,192 145,192 C145,192 316.556,192 316.556,192" codeLine="57" style="stroke:#000;stroke-width:1"/><polygon fill="#000" points="321.556 192 312.556 188 316.556 192 312.556 196 321.556 192" style="stroke:#000;stroke-width:1"/><path id="amfInfo.author-to-amfInfo.name" fill="none" d="M597.204,79 C613.231,79 624,79 624,79 C624,79 624,30.5 624,30.5 C624,30.5 631.832,30.5 631.832,30.5" codeLine="59" style="stroke:#000;stroke-width:1"/><polygon fill="#000" points="636.832 30.5 627.832 26.5 631.832 30.5 627.832 34.5 636.832 30.5" style="stroke:#000;stroke-width:1"/><path id="amfInfo.author-to-amfInfo.emailAddress" fill="none" d="M597.205,94 C597.205,94 631.627,94 631.627,94" codeLine="60" style="stroke:#000;stroke-width:1"/><polygon fill="#000" points="636.627 94 627.627 90 631.627 94 627.627 98 636.627 94" style="stroke:#000;stroke-width:1"/><path id="amfInfo.dateTime-to-amfInfo.creationDateTime" fill="none" d="M597.205,133.6667 C597.205,133.6667 631.627,133.6667 631.627,133.6667" codeLine="62" style="stroke:#000;stroke-width:1"/><polygon fill="#000" points="636.627 133.667 627.627 129.667 631.627 133.667 627.627 137.667 636.627 133.667" style="stroke:#000;stroke-width:1"/><path id="amfInfo.dateTime-to-amfInfo.modificationDateTime" fill="none" d="M597.019,146.3333 C605.674,146.3333 611,146.3333 611,146.3333 C611,146.3333 611,195 611,195 C611,195 631.907,195 631.907,195" codeLine="63" style="stroke:#000;stroke-width:1"/><polygon fill="#000" points="636.907 195 627.907 191 631.907 195 627.907 199 636.907 195" style="stroke:#000;stroke-width:1"/></g></svg>