<svg xmlns="http://www.w3.org/2000/svg" xmlns:xlink="http://www.w3.org/1999/xlink" width="603" height="227" contentScriptType="application/ecmascript" contentStyleType="text/css" preserveAspectRatio="none" style="width:603px;height:227px" version="1.1" viewBox="0 0 603 227" zoomAndPan="magnify"><g><rect width="275" height="68.891" x="7" fill="#FFF" style="stroke:#000;stroke-width:1.5" y="79.5"/><text x="92" y="92.639" fill="#000" font-family="sans-serif" font-size="12" lengthAdjust="spacing" textLength="105">acesMetadataFile</text><line style="stroke:#000;stroke-width:1.5" x1="8" x2="281" y1="97.469" y2="97.469"/><text x="13" y="110.751" fill="#000" font-family="sans-serif" font-size="10" lengthAdjust="spacing" textLength="88">xs:complexType</text><line style="stroke:#000;stroke-width:1;stroke-dasharray:1,2" x1="8" x2="281" y1="117.109" y2="117.109"/><ellipse cx="18" cy="128.109" rx="3" ry="3" style="stroke:#038048;stroke-width:1;fill:none"/><text x="27" y="130.392" fill="#000" font-family="sans-serif" font-size="10" lengthAdjust="spacing" textLength="106">version : xs:decimal</text><ellipse cx="18" cy="139.75" rx="3" ry="3" style="stroke:#038048;stroke-width:1;fill:none"/><text x="27" y="142.032" fill="#000" font-family="sans-serif" font-size="10" lengthAdjust="spacing" textLength="85">xmlns : xs:string</text><rect width="275" height="45.609" x="322" fill="#FFF" style="stroke:#000;stroke-width:1.5" y="7"/><text x="437.5" y="20.139" fill="#000" font-family="sans-serif" font-size="12" lengthAdjust="spacing" textLength="44">amfInfo</text><line style="stroke:#000;stroke-width:1.5" x1="323" x2="596" y1="24.969" y2="24.969"/><text x="328" y="38.251" fill="#000" font-family="sans-serif" font-size="10" lengthAdjust="spacing" textLength="76">aces:infoType</text><line style="stroke:#000;stroke-width:1;stroke-dasharray:1,2" x1="323" x2="596" y1="44.609" y2="44.609"/><rect width="275" height="45.609" x="322" fill="#FFF" style="stroke:#000;stroke-width:1.5" y="63"/><text x="443.5" y="76.139" fill="#000" font-family="sans-serif" font-size="12" lengthAdjust="spacing" textLength="32">clipId</text><line style="stroke:#000;stroke-width:1.5" x1="323" x2="596" y1="80.969" y2="80.969"/><text x="328" y="94.251" fill="#000" font-family="sans-serif" font-size="10" lengthAdjust="spacing" textLength="84">aces:clipIdType</text><line style="stroke:#000;stroke-width:1;stroke-dasharray:1,2" x1="323" x2="596" y1="100.609" y2="100.609"/><rect width="275" height="45.609" x="322" fill="#FFF" style="stroke:#000;stroke-width:1.5" y="119"/><text x="435.5" y="132.139" fill="#000" font-family="sans-serif" font-size="12" lengthAdjust="spacing" textLength="48">pipeline</text><line style="stroke:#000;stroke-width:1.5" x1="323" x2="596" y1="136.969" y2="136.969"/><text x="328" y="150.251" fill="#000" font-family="sans-serif" font-size="10" lengthAdjust="spacing" textLength="99">aces:pipelineType</text><line style="stroke:#000;stroke-width:1;stroke-dasharray:1,2" x1="323" x2="596" y1="156.609" y2="156.609"/><rect width="275" height="45.609" x="322" fill="#FFF" style="stroke:#000;stroke-width:1.5" y="175"/><text x="410.5" y="188.139" fill="#000" font-family="sans-serif" font-size="12" lengthAdjust="spacing" textLength="98">archivedPipeline</text><line style="stroke:#000;stroke-width:1.5" x1="323" x2="596" y1="192.969" y2="192.969"/><text x="328" y="206.251" fill="#000" font-family="sans-serif" font-size="10" lengthAdjust="spacing" textLength="99">aces:pipelineType</text><line style="stroke:#000;stroke-width:1;stroke-dasharray:1,2" x1="323" x2="596" y1="212.609" y2="212.609"/><path id="acesMetadataFile-to-amfInfo" fill="none" d="M145,79.349 C145,56.21 145,30 145,30 C145,30 316.556,30 316.556,30" codeLine="40" style="stroke:#000;stroke-width:1"/><polygon fill="#000" points="321.556 30 312.556 26 316.556 30 312.556 34 321.556 30" style="stroke:#000;stroke-width:1"/><path id="acesMetadataFile-to-clipId" fill="none" d="M282.205,94.25 C282.205,94.25 316.627,94.25 316.627,94.25" codeLine="41" style="stroke:#000;stroke-width:1"/><polygon fill="#000" points="321.627 94.25 312.627 90.25 316.627 94.25 312.627 98.25 321.627 94.25" style="stroke:#000;stroke-width:1"/><path id="acesMetadataFile-to-pipeline" fill="none" d="M282.205,133.75 C282.205,133.75 316.627,133.75 316.627,133.75" codeLine="42" style="stroke:#000;stroke-width:1"/><polygon fill="#000" points="321.627 133.75 312.627 129.75 316.627 133.75 312.627 137.75 321.627 133.75" style="stroke:#000;stroke-width:1"/><path id="acesMetadataFile-to-archivedPipeline" fill="none" d="M145,148.651 C145,171.7897 145,198 145,198 C145,198 316.556,198 316.556,198" codeLine="43" style="stroke:#000;stroke-width:1"/><polygon fill="#000" points="321.556 198 312.556 194 316.556 198 312.556 202 321.556 198" style="stroke:#000;stroke-width:1"/></g></svg>