<svg xmlns="http://www.w3.org/2000/svg" xmlns:xlink="http://www.w3.org/1999/xlink" width="918" height="991" contentScriptType="application/ecmascript" contentStyleType="text/css" preserveAspectRatio="none" style="width:918px;height:991px" version="1.1" viewBox="0 0 918 991" zoomAndPan="magnify"><g><rect width="275" height="57.25" x="7" fill="#FFF" style="stroke:#000;stroke-width:1.5" y="209.5"/><text x="99.5" y="222.639" fill="#000" font-family="sans-serif" font-size="12" lengthAdjust="spacing" textLength="90">inputTransform</text><line style="stroke:#000;stroke-width:1.5" x1="8" x2="281" y1="227.469" y2="227.469"/><text x="13" y="240.751" fill="#000" font-family="sans-serif" font-size="10" lengthAdjust="spacing" textLength="139">aces:inputTransformType</text><line style="stroke:#000;stroke-width:1;stroke-dasharray:1,2" x1="8" x2="281" y1="247.109" y2="247.109"/><ellipse cx="18" cy="258.109" rx="3" ry="3" style="stroke:#038048;stroke-width:1;fill:none"/><text x="27" y="260.392" fill="#000" font-family="sans-serif" font-size="10" lengthAdjust="spacing" textLength="88">applied : xs:bool</text><rect width="275" height="45.609" x="322" fill="#FFF" style="stroke:#000;stroke-width:1.5" y="7"/><text x="425.5" y="20.139" fill="#000" font-family="sans-serif" font-size="12" lengthAdjust="spacing" textLength="68">description</text><line style="stroke:#000;stroke-width:1.5" x1="323" x2="596" y1="24.969" y2="24.969"/><text x="328" y="38.251" fill="#000" font-family="sans-serif" font-size="10" lengthAdjust="spacing" textLength="47">xs: string</text><line style="stroke:#000;stroke-width:1;stroke-dasharray:1,2" x1="323" x2="596" y1="44.609" y2="44.609"/><rect width="275" height="57.25" x="322" fill="#FFF" style="stroke:#000;stroke-width:1.5" y="63.5"/><text x="445.5" y="76.639" fill="#000" font-family="sans-serif" font-size="12" lengthAdjust="spacing" textLength="28">hash</text><line style="stroke:#000;stroke-width:1.5" x1="323" x2="596" y1="81.469" y2="81.469"/><text x="328" y="94.751" fill="#000" font-family="sans-serif" font-size="10" lengthAdjust="spacing" textLength="81">aces:hashType</text><line style="stroke:#000;stroke-width:1;stroke-dasharray:1,2" x1="323" x2="596" y1="101.109" y2="101.109"/><ellipse cx="333" cy="112.109" rx="3" ry="3" style="stroke:#038048;stroke-width:1;fill:none"/><text x="342" y="114.392" fill="#000" font-family="sans-serif" font-size="10" lengthAdjust="spacing" textLength="167">algorithm : aces:hashAlgoType</text><rect width="275" height="45.609" x="322" fill="#FFF" style="stroke:#000;stroke-width:1.5" y="131"/><text x="447" y="144.139" fill="#000" font-family="sans-serif" font-size="12" lengthAdjust="spacing" textLength="25">uuid</text><line style="stroke:#000;stroke-width:1.5" x1="323" x2="596" y1="148.969" y2="148.969"/><text x="328" y="162.251" fill="#000" font-family="sans-serif" font-size="10" lengthAdjust="spacing" textLength="84">dcml:UUIDType</text><line style="stroke:#000;stroke-width:1;stroke-dasharray:1,2" x1="323" x2="596" y1="168.609" y2="168.609"/><rect width="275" height="45.609" x="322" fill="#FFF" style="stroke:#000;stroke-width:1.5" y="187"/><text x="450.5" y="200.139" fill="#000" font-family="sans-serif" font-size="12" lengthAdjust="spacing" textLength="18">file</text><line style="stroke:#000;stroke-width:1.5" x1="323" x2="596" y1="204.969" y2="204.969"/><text x="328" y="218.251" fill="#000" font-family="sans-serif" font-size="10" lengthAdjust="spacing" textLength="52">xs:anyURI</text><line style="stroke:#000;stroke-width:1;stroke-dasharray:1,2" x1="323" x2="596" y1="224.609" y2="224.609"/><rect width="275" height="45.609" x="322" fill="#FFF" style="stroke:#000;stroke-width:1.5" y="243"/><text x="425" y="256.139" fill="#000" font-family="sans-serif" font-size="12" lengthAdjust="spacing" textLength="69">transformId</text><line style="stroke:#000;stroke-width:1.5" x1="323" x2="596" y1="260.969" y2="260.969"/><text x="328" y="274.251" fill="#000" font-family="sans-serif" font-size="10" lengthAdjust="spacing" textLength="123">aces:tnInputTransform</text><line style="stroke:#000;stroke-width:1;stroke-dasharray:1,2" x1="323" x2="596" y1="280.609" y2="280.609"/><rect width="275" height="45.609" x="322" fill="#FFF" style="stroke:#000;stroke-width:1.5" y="299"/><text x="386.5" y="312.139" fill="#000" font-family="sans-serif" font-size="12" lengthAdjust="spacing" textLength="146">inverseOutputTransform</text><line style="stroke:#000;stroke-width:1.5" x1="323" x2="596" y1="316.969" y2="316.969"/><text x="328" y="330.251" fill="#000" font-family="sans-serif" font-size="10" lengthAdjust="spacing" textLength="188">aces:inverseOutputTransformType</text><line style="stroke:#000;stroke-width:1;stroke-dasharray:1,2" x1="323" x2="596" y1="336.609" y2="336.609"/><rect width="275" height="45.609" x="637" fill="#FFF" style="stroke:#000;stroke-width:1.5" y="119"/><text x="740.5" y="132.139" fill="#000" font-family="sans-serif" font-size="12" lengthAdjust="spacing" textLength="68">description</text><line style="stroke:#000;stroke-width:1.5" x1="638" x2="911" y1="136.969" y2="136.969"/><text x="643" y="150.251" fill="#000" font-family="sans-serif" font-size="10" lengthAdjust="spacing" textLength="47">xs: string</text><line style="stroke:#000;stroke-width:1;stroke-dasharray:1,2" x1="638" x2="911" y1="156.609" y2="156.609"/><rect width="275" height="57.25" x="637" fill="#FFF" style="stroke:#000;stroke-width:1.5" y="175.5"/><text x="760.5" y="188.639" fill="#000" font-family="sans-serif" font-size="12" lengthAdjust="spacing" textLength="28">hash</text><line style="stroke:#000;stroke-width:1.5" x1="638" x2="911" y1="193.469" y2="193.469"/><text x="643" y="206.751" fill="#000" font-family="sans-serif" font-size="10" lengthAdjust="spacing" textLength="81">aces:hashType</text><line style="stroke:#000;stroke-width:1;stroke-dasharray:1,2" x1="638" x2="911" y1="213.109" y2="213.109"/><ellipse cx="648" cy="224.109" rx="3" ry="3" style="stroke:#038048;stroke-width:1;fill:none"/><text x="657" y="226.392" fill="#000" font-family="sans-serif" font-size="10" lengthAdjust="spacing" textLength="167">algorithm : aces:hashAlgoType</text><rect width="275" height="45.609" x="637" fill="#FFF" style="stroke:#000;stroke-width:1.5" y="243"/><text x="762" y="256.139" fill="#000" font-family="sans-serif" font-size="12" lengthAdjust="spacing" textLength="25">uuid</text><line style="stroke:#000;stroke-width:1.5" x1="638" x2="911" y1="260.969" y2="260.969"/><text x="643" y="274.251" fill="#000" font-family="sans-serif" font-size="10" lengthAdjust="spacing" textLength="84">dcml:UUIDType</text><line style="stroke:#000;stroke-width:1;stroke-dasharray:1,2" x1="638" x2="911" y1="280.609" y2="280.609"/><rect width="275" height="45.609" x="637" fill="#FFF" style="stroke:#000;stroke-width:1.5" y="299"/><text x="765.5" y="312.139" fill="#000" font-family="sans-serif" font-size="12" lengthAdjust="spacing" textLength="18">file</text><line style="stroke:#000;stroke-width:1.5" x1="638" x2="911" y1="316.969" y2="316.969"/><text x="643" y="330.251" fill="#000" font-family="sans-serif" font-size="10" lengthAdjust="spacing" textLength="52">xs:anyURI</text><line style="stroke:#000;stroke-width:1;stroke-dasharray:1,2" x1="638" x2="911" y1="336.609" y2="336.609"/><rect width="275" height="45.609" x="637" fill="#FFF" style="stroke:#000;stroke-width:1.5" y="355"/><text x="740" y="368.139" fill="#000" font-family="sans-serif" font-size="12" lengthAdjust="spacing" textLength="69">transformId</text><line style="stroke:#000;stroke-width:1.5" x1="638" x2="911" y1="372.969" y2="372.969"/><text x="643" y="386.251" fill="#000" font-family="sans-serif" font-size="10" lengthAdjust="spacing" textLength="172">aces:tnInverseOutputTransform</text><line style="stroke:#000;stroke-width:1;stroke-dasharray:1,2" x1="638" x2="911" y1="392.609" y2="392.609"/><rect width="275" height="45.609" x="322" fill="#FFF" style="stroke:#000;stroke-width:1.5" y="504"/><text x="365.5" y="517.139" fill="#000" font-family="sans-serif" font-size="12" lengthAdjust="spacing" textLength="188">inverseOutputDeviceTransform</text><line style="stroke:#000;stroke-width:1.5" x1="323" x2="596" y1="521.969" y2="521.969"/><text x="328" y="535.251" fill="#000" font-family="sans-serif" font-size="10" lengthAdjust="spacing" textLength="225">aces:inverseOutputDeviceTransformType</text><line style="stroke:#000;stroke-width:1;stroke-dasharray:1,2" x1="323" x2="596" y1="541.609" y2="541.609"/><rect width="275" height="45.609" x="637" fill="#FFF" style="stroke:#000;stroke-width:1.5" y="411"/><text x="740.5" y="424.139" fill="#000" font-family="sans-serif" font-size="12" lengthAdjust="spacing" textLength="68">description</text><line style="stroke:#000;stroke-width:1.5" x1="638" x2="911" y1="428.969" y2="428.969"/><text x="643" y="442.251" fill="#000" font-family="sans-serif" font-size="10" lengthAdjust="spacing" textLength="47">xs: string</text><line style="stroke:#000;stroke-width:1;stroke-dasharray:1,2" x1="638" x2="911" y1="448.609" y2="448.609"/><rect width="275" height="57.25" x="637" fill="#FFF" style="stroke:#000;stroke-width:1.5" y="467.5"/><text x="760.5" y="480.639" fill="#000" font-family="sans-serif" font-size="12" lengthAdjust="spacing" textLength="28">hash</text><line style="stroke:#000;stroke-width:1.5" x1="638" x2="911" y1="485.469" y2="485.469"/><text x="643" y="498.751" fill="#000" font-family="sans-serif" font-size="10" lengthAdjust="spacing" textLength="81">aces:hashType</text><line style="stroke:#000;stroke-width:1;stroke-dasharray:1,2" x1="638" x2="911" y1="505.109" y2="505.109"/><ellipse cx="648" cy="516.109" rx="3" ry="3" style="stroke:#038048;stroke-width:1;fill:none"/><text x="657" y="518.392" fill="#000" font-family="sans-serif" font-size="10" lengthAdjust="spacing" textLength="167">algorithm : aces:hashAlgoType</text><rect width="275" height="45.609" x="637" fill="#FFF" style="stroke:#000;stroke-width:1.5" y="535"/><text x="762" y="548.139" fill="#000" font-family="sans-serif" font-size="12" lengthAdjust="spacing" textLength="25">uuid</text><line style="stroke:#000;stroke-width:1.5" x1="638" x2="911" y1="552.969" y2="552.969"/><text x="643" y="566.251" fill="#000" font-family="sans-serif" font-size="10" lengthAdjust="spacing" textLength="84">dcml:UUIDType</text><line style="stroke:#000;stroke-width:1;stroke-dasharray:1,2" x1="638" x2="911" y1="572.609" y2="572.609"/><rect width="275" height="45.609" x="637" fill="#FFF" style="stroke:#000;stroke-width:1.5" y="591"/><text x="765.5" y="604.139" fill="#000" font-family="sans-serif" font-size="12" lengthAdjust="spacing" textLength="18">file</text><line style="stroke:#000;stroke-width:1.5" x1="638" x2="911" y1="608.969" y2="608.969"/><text x="643" y="622.251" fill="#000" font-family="sans-serif" font-size="10" lengthAdjust="spacing" textLength="52">xs:anyURI</text><line style="stroke:#000;stroke-width:1;stroke-dasharray:1,2" x1="638" x2="911" y1="628.609" y2="628.609"/><rect width="275" height="45.609" x="637" fill="#FFF" style="stroke:#000;stroke-width:1.5" y="647"/><text x="740" y="660.139" fill="#000" font-family="sans-serif" font-size="12" lengthAdjust="spacing" textLength="69">transformId</text><line style="stroke:#000;stroke-width:1.5" x1="638" x2="911" y1="664.969" y2="664.969"/><text x="643" y="678.251" fill="#000" font-family="sans-serif" font-size="10" lengthAdjust="spacing" textLength="209">aces:tnInverseOutputDeviceTransform</text><line style="stroke:#000;stroke-width:1;stroke-dasharray:1,2" x1="638" x2="911" y1="684.609" y2="684.609"/><rect width="275" height="45.609" x="322" fill="#FFF" style="stroke:#000;stroke-width:1.5" y="796"/><text x="345" y="809.139" fill="#000" font-family="sans-serif" font-size="12" lengthAdjust="spacing" textLength="229">inverseReferenceRenderingTransform</text><line style="stroke:#000;stroke-width:1.5" x1="323" x2="596" y1="813.969" y2="813.969"/><text x="328" y="827.251" fill="#000" font-family="sans-serif" font-size="10" lengthAdjust="spacing" textLength="262">aces:inverseReferenceRenderingTransformType</text><line style="stroke:#000;stroke-width:1;stroke-dasharray:1,2" x1="323" x2="596" y1="833.609" y2="833.609"/><rect width="275" height="45.609" x="637" fill="#FFF" style="stroke:#000;stroke-width:1.5" y="703"/><text x="740.5" y="716.139" fill="#000" font-family="sans-serif" font-size="12" lengthAdjust="spacing" textLength="68">description</text><line style="stroke:#000;stroke-width:1.5" x1="638" x2="911" y1="720.969" y2="720.969"/><text x="643" y="734.251" fill="#000" font-family="sans-serif" font-size="10" lengthAdjust="spacing" textLength="47">xs: string</text><line style="stroke:#000;stroke-width:1;stroke-dasharray:1,2" x1="638" x2="911" y1="740.609" y2="740.609"/><rect width="275" height="57.25" x="637" fill="#FFF" style="stroke:#000;stroke-width:1.5" y="759.5"/><text x="760.5" y="772.639" fill="#000" font-family="sans-serif" font-size="12" lengthAdjust="spacing" textLength="28">hash</text><line style="stroke:#000;stroke-width:1.5" x1="638" x2="911" y1="777.469" y2="777.469"/><text x="643" y="790.751" fill="#000" font-family="sans-serif" font-size="10" lengthAdjust="spacing" textLength="81">aces:hashType</text><line style="stroke:#000;stroke-width:1;stroke-dasharray:1,2" x1="638" x2="911" y1="797.109" y2="797.109"/><ellipse cx="648" cy="808.109" rx="3" ry="3" style="stroke:#038048;stroke-width:1;fill:none"/><text x="657" y="810.392" fill="#000" font-family="sans-serif" font-size="10" lengthAdjust="spacing" textLength="167">algorithm : aces:hashAlgoType</text><rect width="275" height="45.609" x="637" fill="#FFF" style="stroke:#000;stroke-width:1.5" y="827"/><text x="762" y="840.139" fill="#000" font-family="sans-serif" font-size="12" lengthAdjust="spacing" textLength="25">uuid</text><line style="stroke:#000;stroke-width:1.5" x1="638" x2="911" y1="844.969" y2="844.969"/><text x="643" y="858.251" fill="#000" font-family="sans-serif" font-size="10" lengthAdjust="spacing" textLength="84">dcml:UUIDType</text><line style="stroke:#000;stroke-width:1;stroke-dasharray:1,2" x1="638" x2="911" y1="864.609" y2="864.609"/><rect width="275" height="45.609" x="637" fill="#FFF" style="stroke:#000;stroke-width:1.5" y="883"/><text x="765.5" y="896.139" fill="#000" font-family="sans-serif" font-size="12" lengthAdjust="spacing" textLength="18">file</text><line style="stroke:#000;stroke-width:1.5" x1="638" x2="911" y1="900.969" y2="900.969"/><text x="643" y="914.251" fill="#000" font-family="sans-serif" font-size="10" lengthAdjust="spacing" textLength="52">xs:anyURI</text><line style="stroke:#000;stroke-width:1;stroke-dasharray:1,2" x1="638" x2="911" y1="920.609" y2="920.609"/><rect width="275" height="45.609" x="637" fill="#FFF" style="stroke:#000;stroke-width:1.5" y="939"/><text x="740" y="952.139" fill="#000" font-family="sans-serif" font-size="12" lengthAdjust="spacing" textLength="69">transformId</text><line style="stroke:#000;stroke-width:1.5" x1="638" x2="911" y1="956.969" y2="956.969"/><text x="643" y="970.251" fill="#000" font-family="sans-serif" font-size="10" lengthAdjust="spacing" textLength="246">aces:tnInverseReferenceRenderingTransform</text><line style="stroke:#000;stroke-width:1;stroke-dasharray:1,2" x1="638" x2="911" y1="976.609" y2="976.609"/><path id="inputTransform.root-to-inputTransform.description" fill="none" d="M76,209.078 C76,151.926 76,30 76,30 C76,30 316.86,30 316.86,30" codeLine="50" style="stroke:#000;stroke-width:1"/><polygon fill="#000" points="321.86 30 312.86 26 316.86 30 312.86 34 321.86 30" style="stroke:#000;stroke-width:1"/><path id="inputTransform.root-to-inputTransform.hash" fill="none" d="M145,209.155 C145,166.606 145,92 145,92 C145,92 316.556,92 316.556,92" codeLine="51" style="stroke:#000;stroke-width:1"/><polygon fill="#000" points="321.556 92 312.556 88 316.556 92 312.556 96 321.556 92" style="stroke:#000;stroke-width:1"/><path id="inputTransform.root-to-inputTransform.uuid" fill="none" d="M214,209.092 C214,184.794 214,154 214,154 C214,154 316.68,154 316.68,154" codeLine="52" style="stroke:#000;stroke-width:1"/><polygon fill="#000" points="321.68 154 312.68 150 316.68 154 312.68 158 321.68 154" style="stroke:#000;stroke-width:1"/><path id="inputTransform.root-to-inputTransform.file" fill="none" d="M282.205,221.25 C282.205,221.25 316.627,221.25 316.627,221.25" codeLine="53" style="stroke:#000;stroke-width:1"/><polygon fill="#000" points="321.627 221.25 312.627 217.25 316.627 221.25 312.627 225.25 321.627 221.25" style="stroke:#000;stroke-width:1"/><path id="inputTransform.root-to-inputTransform.transformId" fill="none" d="M282.205,254.75 C282.205,254.75 316.627,254.75 316.627,254.75" codeLine="54" style="stroke:#000;stroke-width:1"/><polygon fill="#000" points="321.627 254.75 312.627 250.75 316.627 254.75 312.627 258.75 321.627 254.75" style="stroke:#000;stroke-width:1"/><path id="inverseOutputTransform.root-to-inverseOutputTransform.description" fill="none" d="M597.322,308.2 C603.399,308.2 607,308.2 607,308.2 C607,308.2 607,148 607,148 C607,148 631.946,148 631.946,148" codeLine="50" style="stroke:#000;stroke-width:1"/><polygon fill="#000" points="636.946 148 627.946 144 631.946 148 627.946 152 636.946 148" style="stroke:#000;stroke-width:1"/><path id="inverseOutputTransform.root-to-inverseOutputTransform.hash" fill="none" d="M597.053,317.4 C609.192,317.4 617,317.4 617,317.4 C617,317.4 617,209.75 617,209.75 C617,209.75 631.947,209.75 631.947,209.75" codeLine="51" style="stroke:#000;stroke-width:1"/><polygon fill="#000" points="636.947 209.75 627.947 205.75 631.947 209.75 627.947 213.75 636.947 209.75" style="stroke:#000;stroke-width:1"/><path id="inverseOutputTransform.root-to-inverseOutputTransform.uuid" fill="none" d="M597.054,326.6 C614.832,326.6 627,326.6 627,326.6 C627,326.6 627,266 627,266 C627,266 631.678,266 631.678,266" codeLine="52" style="stroke:#000;stroke-width:1"/><polygon fill="#000" points="636.678 266 627.678 262 631.678 266 627.678 270 636.678 266" style="stroke:#000;stroke-width:1"/><path id="inverseOutputTransform.root-to-inverseOutputTransform.file" fill="none" d="M597.205,335.8 C597.205,335.8 631.627,335.8 631.627,335.8" codeLine="53" style="stroke:#000;stroke-width:1"/><polygon fill="#000" points="636.627 335.8 627.627 331.8 631.627 335.8 627.627 339.8 636.627 335.8" style="stroke:#000;stroke-width:1"/><path id="inverseOutputTransform.root-to-inverseOutputTransform.transformId" fill="none" d="M506,345.101 C506,360.526 506,378 506,378 C506,378 631.711,378 631.711,378" codeLine="54" style="stroke:#000;stroke-width:1"/><polygon fill="#000" points="636.711 378 627.711 374 631.711 378 627.711 382 636.711 378" style="stroke:#000;stroke-width:1"/><path id="inverseOutputDeviceTransform.root-to-inverseOutputDeviceTransform.description" fill="none" d="M414,503.532 C414,475.982 414,434 414,434 C414,434 631.925,434 631.925,434" codeLine="50" style="stroke:#000;stroke-width:1"/><polygon fill="#000" points="636.925 434 627.925 430 631.925 434 627.925 438 636.925 434" style="stroke:#000;stroke-width:1"/><path id="inverseOutputDeviceTransform.root-to-inverseOutputDeviceTransform.hash" fill="none" d="M597.205,514.25 C597.205,514.25 631.627,514.25 631.627,514.25" codeLine="51" style="stroke:#000;stroke-width:1"/><polygon fill="#000" points="636.627 514.25 627.627 510.25 631.627 514.25 627.627 518.25 636.627 514.25" style="stroke:#000;stroke-width:1"/><path id="inverseOutputDeviceTransform.root-to-inverseOutputDeviceTransform.uuid" fill="none" d="M597.205,542.5 C597.205,542.5 631.627,542.5 631.627,542.5" codeLine="52" style="stroke:#000;stroke-width:1"/><polygon fill="#000" points="636.627 542.5 627.627 538.5 631.627 542.5 627.627 546.5 636.627 542.5" style="stroke:#000;stroke-width:1"/><path id="inverseOutputDeviceTransform.root-to-inverseOutputDeviceTransform.file" fill="none" d="M529,550.314 C529,576.085 529,614 529,614 C529,614 631.68,614 631.68,614" codeLine="53" style="stroke:#000;stroke-width:1"/><polygon fill="#000" points="636.68 614 627.68 610 631.68 614 627.68 618 636.68 614" style="stroke:#000;stroke-width:1"/><path id="inverseOutputDeviceTransform.root-to-inverseOutputDeviceTransform.transformId" fill="none" d="M391,550.294 C391,590.814 391,670 391,670 C391,670 631.86,670 631.86,670" codeLine="54" style="stroke:#000;stroke-width:1"/><polygon fill="#000" points="636.86 670 627.86 666 631.86 670 627.86 674 636.86 670" style="stroke:#000;stroke-width:1"/><path id="inverseReferenceRenderingTransform.root-to-inverseReferenceRenderingTransform.description" fill="none" d="M460,795.532 C460,767.982 460,726 460,726 C460,726 631.556,726 631.556,726" codeLine="50" style="stroke:#000;stroke-width:1"/><polygon fill="#000" points="636.556 726 627.556 722 631.556 726 627.556 730 636.556 726" style="stroke:#000;stroke-width:1"/><path id="inverseReferenceRenderingTransform.root-to-inverseReferenceRenderingTransform.hash" fill="none" d="M597.205,806.25 C597.205,806.25 631.627,806.25 631.627,806.25" codeLine="51" style="stroke:#000;stroke-width:1"/><polygon fill="#000" points="636.627 806.25 627.627 802.25 631.627 806.25 627.627 810.25 636.627 806.25" style="stroke:#000;stroke-width:1"/><path id="inverseReferenceRenderingTransform.root-to-inverseReferenceRenderingTransform.uuid" fill="none" d="M597.205,834.5 C597.205,834.5 631.627,834.5 631.627,834.5" codeLine="52" style="stroke:#000;stroke-width:1"/><polygon fill="#000" points="636.627 834.5 627.627 830.5 631.627 834.5 627.627 838.5 636.627 834.5" style="stroke:#000;stroke-width:1"/><path id="inverseReferenceRenderingTransform.root-to-inverseReferenceRenderingTransform.file" fill="none" d="M506,842.314 C506,868.085 506,906 506,906 C506,906 631.711,906 631.711,906" codeLine="53" style="stroke:#000;stroke-width:1"/><polygon fill="#000" points="636.711 906 627.711 902 631.711 906 627.711 910 636.711 906" style="stroke:#000;stroke-width:1"/><path id="inverseReferenceRenderingTransform.root-to-inverseReferenceRenderingTransform.transformId" fill="none" d="M414,842.294 C414,882.814 414,962 414,962 C414,962 631.925,962 631.925,962" codeLine="54" style="stroke:#000;stroke-width:1"/><polygon fill="#000" points="636.925 962 627.925 958 631.925 962 627.925 966 636.925 962" style="stroke:#000;stroke-width:1"/><path id="inputTransform.root-to-inverseOutputTransform.root" fill="none" d="M214,266.908 C214,291.206 214,322 214,322 C214,322 316.68,322 316.68,322" codeLine="63" style="stroke:#000;stroke-width:1"/><polygon fill="#000" points="321.68 322 312.68 318 316.68 322 312.68 326 321.68 322" style="stroke:#000;stroke-width:1"/><path id="inputTransform.root-to-inverseOutputDeviceTransform.root" fill="none" d="M145,266.501 C145,339.412 145,527 145,527 C145,527 316.556,527 316.556,527" codeLine="64" style="stroke:#000;stroke-width:1"/><polygon fill="#000" points="321.556 527 312.556 523 316.556 527 312.556 531 321.556 527" style="stroke:#000;stroke-width:1"/><path id="inputTransform.root-to-inverseReferenceRenderingTransform.root" fill="none" d="M76,266.812 C76,384.046 76,819 76,819 C76,819 316.86,819 316.86,819" codeLine="65" style="stroke:#000;stroke-width:1"/><polygon fill="#000" points="321.86 819 312.86 815 316.86 819 312.86 823 321.86 819" style="stroke:#000;stroke-width:1"/></g></svg>