<svg xmlns="http://www.w3.org/2000/svg" xmlns:xlink="http://www.w3.org/1999/xlink" width="603" height="263" contentScriptType="application/ecmascript" contentStyleType="text/css" preserveAspectRatio="none" style="width:603px;height:263px" version="1.1" viewBox="0 0 603 263" zoomAndPan="magnify"><g><rect width="275" height="45.609" x="7" fill="#FFF" style="stroke:#000;stroke-width:1.5" y="118"/><text x="128.5" y="131.139" fill="#000" font-family="sans-serif" font-size="12" lengthAdjust="spacing" textLength="32">clipId</text><line style="stroke:#000;stroke-width:1.5" x1="8" x2="281" y1="135.969" y2="135.969"/><text x="13" y="149.251" fill="#000" font-family="sans-serif" font-size="10" lengthAdjust="spacing" textLength="84">aces:clipIdType</text><line style="stroke:#000;stroke-width:1;stroke-dasharray:1,2" x1="8" x2="281" y1="155.609" y2="155.609"/><rect width="275" height="45.609" x="322" fill="#FFF" style="stroke:#000;stroke-width:1.5" y="7"/><text x="432" y="20.139" fill="#000" font-family="sans-serif" font-size="12" lengthAdjust="spacing" textLength="55">clipName</text><line style="stroke:#000;stroke-width:1.5" x1="323" x2="596" y1="24.969" y2="24.969"/><text x="328" y="38.251" fill="#000" font-family="sans-serif" font-size="10" lengthAdjust="spacing" textLength="44">xs:string</text><line style="stroke:#000;stroke-width:1;stroke-dasharray:1,2" x1="323" x2="596" y1="44.609" y2="44.609"/><rect width="275" height="80.531" x="322" fill="#FFF" style="stroke:#000;stroke-width:1.5" y="63.5"/><text x="429.5" y="76.639" fill="#000" font-family="sans-serif" font-size="12" lengthAdjust="spacing" textLength="60">sequence</text><line style="stroke:#000;stroke-width:1.5" x1="323" x2="596" y1="81.469" y2="81.469"/><text x="328" y="94.751" fill="#000" font-family="sans-serif" font-size="10" lengthAdjust="spacing" textLength="108">aces:sequenceType</text><line style="stroke:#000;stroke-width:1;stroke-dasharray:1,2" x1="323" x2="596" y1="101.109" y2="101.109"/><ellipse cx="333" cy="112.109" rx="3" ry="3" style="stroke:#038048;stroke-width:1;fill:none"/><text x="342" y="114.392" fill="#000" font-family="sans-serif" font-size="10" lengthAdjust="spacing" textLength="69">idx : xs:string</text><ellipse cx="333" cy="123.75" rx="3" ry="3" style="stroke:#038048;stroke-width:1;fill:none"/><text x="342" y="126.032" fill="#000" font-family="sans-serif" font-size="10" lengthAdjust="spacing" textLength="153">min : xs:nonNegativeInteger</text><ellipse cx="333" cy="135.391" rx="3" ry="3" style="stroke:#038048;stroke-width:1;fill:none"/><text x="342" y="137.673" fill="#000" font-family="sans-serif" font-size="10" lengthAdjust="spacing" textLength="156">max : xs:nonNegativeInteger</text><rect width="275" height="45.609" x="322" fill="#FFF" style="stroke:#000;stroke-width:1.5" y="155"/><text x="450.5" y="168.139" fill="#000" font-family="sans-serif" font-size="12" lengthAdjust="spacing" textLength="18">file</text><line style="stroke:#000;stroke-width:1.5" x1="323" x2="596" y1="172.969" y2="172.969"/><text x="328" y="186.251" fill="#000" font-family="sans-serif" font-size="10" lengthAdjust="spacing" textLength="52">xs:anyURI</text><line style="stroke:#000;stroke-width:1;stroke-dasharray:1,2" x1="323" x2="596" y1="192.609" y2="192.609"/><rect width="275" height="45.609" x="322" fill="#FFF" style="stroke:#000;stroke-width:1.5" y="211"/><text x="447" y="224.139" fill="#000" font-family="sans-serif" font-size="12" lengthAdjust="spacing" textLength="25">uuid</text><line style="stroke:#000;stroke-width:1.5" x1="323" x2="596" y1="228.969" y2="228.969"/><text x="328" y="242.251" fill="#000" font-family="sans-serif" font-size="10" lengthAdjust="spacing" textLength="84">dcml:UUIDType</text><line style="stroke:#000;stroke-width:1;stroke-dasharray:1,2" x1="323" x2="596" y1="248.609" y2="248.609"/><path id="clipId.root-to-clipId.clipName" fill="none" d="M145,117.731 C145,85.182 145,30 145,30 C145,30 316.556,30 316.556,30" codeLine="38" style="stroke:#000;stroke-width:1"/><polygon fill="#000" points="321.556 30 312.556 26 316.556 30 312.556 34 321.556 30" style="stroke:#000;stroke-width:1"/><path id="clipId.root-to-clipId.sequence" fill="none" d="M282.205,131.25 C282.205,131.25 316.627,131.25 316.627,131.25" codeLine="39" style="stroke:#000;stroke-width:1"/><polygon fill="#000" points="321.627 131.25 312.627 127.25 316.627 131.25 312.627 135.25 321.627 131.25" style="stroke:#000;stroke-width:1"/><path id="clipId.root-to-clipId.file" fill="none" d="M282.205,159.5 C282.205,159.5 316.627,159.5 316.627,159.5" codeLine="40" style="stroke:#000;stroke-width:1"/><polygon fill="#000" points="321.627 159.5 312.627 155.5 316.627 159.5 312.627 163.5 321.627 159.5" style="stroke:#000;stroke-width:1"/><path id="clipId.root-to-clipId.uuid" fill="none" d="M145,164.4678 C145,192.0183 145,234 145,234 C145,234 316.556,234 316.556,234" codeLine="41" style="stroke:#000;stroke-width:1"/><polygon fill="#000" points="321.556 234 312.556 230 316.556 234 312.556 238 321.556 234" style="stroke:#000;stroke-width:1"/></g></svg>