<svg xmlns="http://www.w3.org/2000/svg" xmlns:xlink="http://www.w3.org/1999/xlink" width="918" height="727" contentScriptType="application/ecmascript" contentStyleType="text/css" preserveAspectRatio="none" style="width:918px;height:727px" version="1.1" viewBox="0 0 918 727" zoomAndPan="magnify"><g><rect width="275" height="45.609" x="7" fill="#FFF" style="stroke:#000;stroke-width:1.5" y="187"/><text x="95" y="200.139" fill="#000" font-family="sans-serif" font-size="12" lengthAdjust="spacing" textLength="99">outputTransform</text><line style="stroke:#000;stroke-width:1.5" x1="8" x2="281" y1="204.969" y2="204.969"/><text x="13" y="218.251" fill="#000" font-family="sans-serif" font-size="10" lengthAdjust="spacing" textLength="147">aces:outputTransformType</text><line style="stroke:#000;stroke-width:1;stroke-dasharray:1,2" x1="8" x2="281" y1="224.609" y2="224.609"/><rect width="275" height="45.609" x="322" fill="#FFF" style="stroke:#000;stroke-width:1.5" y="7"/><text x="425.5" y="20.139" fill="#000" font-family="sans-serif" font-size="12" lengthAdjust="spacing" textLength="68">description</text><line style="stroke:#000;stroke-width:1.5" x1="323" x2="596" y1="24.969" y2="24.969"/><text x="328" y="38.251" fill="#000" font-family="sans-serif" font-size="10" lengthAdjust="spacing" textLength="47">xs: string</text><line style="stroke:#000;stroke-width:1;stroke-dasharray:1,2" x1="323" x2="596" y1="44.609" y2="44.609"/><rect width="275" height="57.25" x="322" fill="#FFF" style="stroke:#000;stroke-width:1.5" y="63.5"/><text x="445.5" y="76.639" fill="#000" font-family="sans-serif" font-size="12" lengthAdjust="spacing" textLength="28">hash</text><line style="stroke:#000;stroke-width:1.5" x1="323" x2="596" y1="81.469" y2="81.469"/><text x="328" y="94.751" fill="#000" font-family="sans-serif" font-size="10" lengthAdjust="spacing" textLength="81">aces:hashType</text><line style="stroke:#000;stroke-width:1;stroke-dasharray:1,2" x1="323" x2="596" y1="101.109" y2="101.109"/><ellipse cx="333" cy="112.109" rx="3" ry="3" style="stroke:#038048;stroke-width:1;fill:none"/><text x="342" y="114.392" fill="#000" font-family="sans-serif" font-size="10" lengthAdjust="spacing" textLength="167">algorithm : aces:hashAlgoType</text><rect width="275" height="45.609" x="322" fill="#FFF" style="stroke:#000;stroke-width:1.5" y="131"/><text x="447" y="144.139" fill="#000" font-family="sans-serif" font-size="12" lengthAdjust="spacing" textLength="25">uuid</text><line style="stroke:#000;stroke-width:1.5" x1="323" x2="596" y1="148.969" y2="148.969"/><text x="328" y="162.251" fill="#000" font-family="sans-serif" font-size="10" lengthAdjust="spacing" textLength="84">dcml:UUIDType</text><line style="stroke:#000;stroke-width:1;stroke-dasharray:1,2" x1="323" x2="596" y1="168.609" y2="168.609"/><rect width="275" height="45.609" x="322" fill="#FFF" style="stroke:#000;stroke-width:1.5" y="187"/><text x="450.5" y="200.139" fill="#000" font-family="sans-serif" font-size="12" lengthAdjust="spacing" textLength="18">file</text><line style="stroke:#000;stroke-width:1.5" x1="323" x2="596" y1="204.969" y2="204.969"/><text x="328" y="218.251" fill="#000" font-family="sans-serif" font-size="10" lengthAdjust="spacing" textLength="52">xs:anyURI</text><line style="stroke:#000;stroke-width:1;stroke-dasharray:1,2" x1="323" x2="596" y1="224.609" y2="224.609"/><rect width="275" height="45.609" x="322" fill="#FFF" style="stroke:#000;stroke-width:1.5" y="243"/><text x="425" y="256.139" fill="#000" font-family="sans-serif" font-size="12" lengthAdjust="spacing" textLength="69">transformId</text><line style="stroke:#000;stroke-width:1.5" x1="323" x2="596" y1="260.969" y2="260.969"/><text x="328" y="274.251" fill="#000" font-family="sans-serif" font-size="10" lengthAdjust="spacing" textLength="133">aces:tnOutputTransform</text><line style="stroke:#000;stroke-width:1;stroke-dasharray:1,2" x1="323" x2="596" y1="280.609" y2="280.609"/><rect width="275" height="45.609" x="322" fill="#FFF" style="stroke:#000;stroke-width:1.5" y="299"/><text x="389" y="312.139" fill="#000" font-family="sans-serif" font-size="12" lengthAdjust="spacing" textLength="141">outputDeviceTransform</text><line style="stroke:#000;stroke-width:1.5" x1="323" x2="596" y1="316.969" y2="316.969"/><text x="328" y="330.251" fill="#000" font-family="sans-serif" font-size="10" lengthAdjust="spacing" textLength="184">aces:outputDeviceTransformType</text><line style="stroke:#000;stroke-width:1;stroke-dasharray:1,2" x1="323" x2="596" y1="336.609" y2="336.609"/><rect width="275" height="45.609" x="637" fill="#FFF" style="stroke:#000;stroke-width:1.5" y="147"/><text x="740.5" y="160.139" fill="#000" font-family="sans-serif" font-size="12" lengthAdjust="spacing" textLength="68">description</text><line style="stroke:#000;stroke-width:1.5" x1="638" x2="911" y1="164.969" y2="164.969"/><text x="643" y="178.251" fill="#000" font-family="sans-serif" font-size="10" lengthAdjust="spacing" textLength="47">xs: string</text><line style="stroke:#000;stroke-width:1;stroke-dasharray:1,2" x1="638" x2="911" y1="184.609" y2="184.609"/><rect width="275" height="57.25" x="637" fill="#FFF" style="stroke:#000;stroke-width:1.5" y="203.5"/><text x="760.5" y="216.639" fill="#000" font-family="sans-serif" font-size="12" lengthAdjust="spacing" textLength="28">hash</text><line style="stroke:#000;stroke-width:1.5" x1="638" x2="911" y1="221.469" y2="221.469"/><text x="643" y="234.751" fill="#000" font-family="sans-serif" font-size="10" lengthAdjust="spacing" textLength="81">aces:hashType</text><line style="stroke:#000;stroke-width:1;stroke-dasharray:1,2" x1="638" x2="911" y1="241.109" y2="241.109"/><ellipse cx="648" cy="252.109" rx="3" ry="3" style="stroke:#038048;stroke-width:1;fill:none"/><text x="657" y="254.392" fill="#000" font-family="sans-serif" font-size="10" lengthAdjust="spacing" textLength="167">algorithm : aces:hashAlgoType</text><rect width="275" height="45.609" x="637" fill="#FFF" style="stroke:#000;stroke-width:1.5" y="271"/><text x="762" y="284.139" fill="#000" font-family="sans-serif" font-size="12" lengthAdjust="spacing" textLength="25">uuid</text><line style="stroke:#000;stroke-width:1.5" x1="638" x2="911" y1="288.969" y2="288.969"/><text x="643" y="302.251" fill="#000" font-family="sans-serif" font-size="10" lengthAdjust="spacing" textLength="84">dcml:UUIDType</text><line style="stroke:#000;stroke-width:1;stroke-dasharray:1,2" x1="638" x2="911" y1="308.609" y2="308.609"/><rect width="275" height="45.609" x="637" fill="#FFF" style="stroke:#000;stroke-width:1.5" y="327"/><text x="765.5" y="340.139" fill="#000" font-family="sans-serif" font-size="12" lengthAdjust="spacing" textLength="18">file</text><line style="stroke:#000;stroke-width:1.5" x1="638" x2="911" y1="344.969" y2="344.969"/><text x="643" y="358.251" fill="#000" font-family="sans-serif" font-size="10" lengthAdjust="spacing" textLength="52">xs:anyURI</text><line style="stroke:#000;stroke-width:1;stroke-dasharray:1,2" x1="638" x2="911" y1="364.609" y2="364.609"/><rect width="275" height="45.609" x="637" fill="#FFF" style="stroke:#000;stroke-width:1.5" y="383"/><text x="740" y="396.139" fill="#000" font-family="sans-serif" font-size="12" lengthAdjust="spacing" textLength="69">transformId</text><line style="stroke:#000;stroke-width:1.5" x1="638" x2="911" y1="400.969" y2="400.969"/><text x="643" y="414.251" fill="#000" font-family="sans-serif" font-size="10" lengthAdjust="spacing" textLength="170">aces:tnOutputDeviceTransform</text><line style="stroke:#000;stroke-width:1;stroke-dasharray:1,2" x1="638" x2="911" y1="420.609" y2="420.609"/><rect width="275" height="45.609" x="322" fill="#FFF" style="stroke:#000;stroke-width:1.5" y="532"/><text x="368.5" y="545.139" fill="#000" font-family="sans-serif" font-size="12" lengthAdjust="spacing" textLength="182">referenceRenderingTransform</text><line style="stroke:#000;stroke-width:1.5" x1="323" x2="596" y1="549.969" y2="549.969"/><text x="328" y="563.251" fill="#000" font-family="sans-serif" font-size="10" lengthAdjust="spacing" textLength="220">aces:referenceRenderingTransformType</text><line style="stroke:#000;stroke-width:1;stroke-dasharray:1,2" x1="323" x2="596" y1="569.609" y2="569.609"/><rect width="275" height="45.609" x="637" fill="#FFF" style="stroke:#000;stroke-width:1.5" y="439"/><text x="740.5" y="452.139" fill="#000" font-family="sans-serif" font-size="12" lengthAdjust="spacing" textLength="68">description</text><line style="stroke:#000;stroke-width:1.5" x1="638" x2="911" y1="456.969" y2="456.969"/><text x="643" y="470.251" fill="#000" font-family="sans-serif" font-size="10" lengthAdjust="spacing" textLength="47">xs: string</text><line style="stroke:#000;stroke-width:1;stroke-dasharray:1,2" x1="638" x2="911" y1="476.609" y2="476.609"/><rect width="275" height="57.25" x="637" fill="#FFF" style="stroke:#000;stroke-width:1.5" y="495.5"/><text x="760.5" y="508.639" fill="#000" font-family="sans-serif" font-size="12" lengthAdjust="spacing" textLength="28">hash</text><line style="stroke:#000;stroke-width:1.5" x1="638" x2="911" y1="513.469" y2="513.469"/><text x="643" y="526.751" fill="#000" font-family="sans-serif" font-size="10" lengthAdjust="spacing" textLength="81">aces:hashType</text><line style="stroke:#000;stroke-width:1;stroke-dasharray:1,2" x1="638" x2="911" y1="533.109" y2="533.109"/><ellipse cx="648" cy="544.109" rx="3" ry="3" style="stroke:#038048;stroke-width:1;fill:none"/><text x="657" y="546.392" fill="#000" font-family="sans-serif" font-size="10" lengthAdjust="spacing" textLength="167">algorithm : aces:hashAlgoType</text><rect width="275" height="45.609" x="637" fill="#FFF" style="stroke:#000;stroke-width:1.5" y="563"/><text x="762" y="576.139" fill="#000" font-family="sans-serif" font-size="12" lengthAdjust="spacing" textLength="25">uuid</text><line style="stroke:#000;stroke-width:1.5" x1="638" x2="911" y1="580.969" y2="580.969"/><text x="643" y="594.251" fill="#000" font-family="sans-serif" font-size="10" lengthAdjust="spacing" textLength="84">dcml:UUIDType</text><line style="stroke:#000;stroke-width:1;stroke-dasharray:1,2" x1="638" x2="911" y1="600.609" y2="600.609"/><rect width="275" height="45.609" x="637" fill="#FFF" style="stroke:#000;stroke-width:1.5" y="619"/><text x="765.5" y="632.139" fill="#000" font-family="sans-serif" font-size="12" lengthAdjust="spacing" textLength="18">file</text><line style="stroke:#000;stroke-width:1.5" x1="638" x2="911" y1="636.969" y2="636.969"/><text x="643" y="650.251" fill="#000" font-family="sans-serif" font-size="10" lengthAdjust="spacing" textLength="52">xs:anyURI</text><line style="stroke:#000;stroke-width:1;stroke-dasharray:1,2" x1="638" x2="911" y1="656.609" y2="656.609"/><rect width="275" height="45.609" x="637" fill="#FFF" style="stroke:#000;stroke-width:1.5" y="675"/><text x="740" y="688.139" fill="#000" font-family="sans-serif" font-size="12" lengthAdjust="spacing" textLength="69">transformId</text><line style="stroke:#000;stroke-width:1.5" x1="638" x2="911" y1="692.969" y2="692.969"/><text x="643" y="706.251" fill="#000" font-family="sans-serif" font-size="10" lengthAdjust="spacing" textLength="207">aces:tnReferenceRenderingTransform</text><line style="stroke:#000;stroke-width:1;stroke-dasharray:1,2" x1="638" x2="911" y1="712.609" y2="712.609"/><path id="outputTransform.root-to-outputTransform.description" fill="none" d="M76,186.837 C76,138.222 76,30 76,30 C76,30 316.86,30 316.86,30" codeLine="50" style="stroke:#000;stroke-width:1"/><polygon fill="#000" points="321.86 30 312.86 26 316.86 30 312.86 34 321.86 30" style="stroke:#000;stroke-width:1"/><path id="outputTransform.root-to-outputTransform.hash" fill="none" d="M145,186.968 C145,152.628 145,92 145,92 C145,92 316.556,92 316.556,92" codeLine="51" style="stroke:#000;stroke-width:1"/><polygon fill="#000" points="321.556 92 312.556 88 316.556 92 312.556 96 321.556 92" style="stroke:#000;stroke-width:1"/><path id="outputTransform.root-to-outputTransform.uuid" fill="none" d="M214,186.899 C214,171.474 214,154 214,154 C214,154 316.68,154 316.68,154" codeLine="52" style="stroke:#000;stroke-width:1"/><polygon fill="#000" points="321.68 154 312.68 150 316.68 154 312.68 158 321.68 154" style="stroke:#000;stroke-width:1"/><path id="outputTransform.root-to-outputTransform.file" fill="none" d="M282.205,210 C282.205,210 316.627,210 316.627,210" codeLine="53" style="stroke:#000;stroke-width:1"/><polygon fill="#000" points="321.627 210 312.627 206 316.627 210 312.627 214 321.627 210" style="stroke:#000;stroke-width:1"/><path id="outputTransform.root-to-outputTransform.transformId" fill="none" d="M214,233.101 C214,248.526 214,266 214,266 C214,266 316.68,266 316.68,266" codeLine="54" style="stroke:#000;stroke-width:1"/><polygon fill="#000" points="321.68 266 312.68 262 316.68 266 312.68 270 321.68 266" style="stroke:#000;stroke-width:1"/><path id="outputDeviceTransform.root-to-outputDeviceTransform.description" fill="none" d="M597.019,303.5 C605.674,303.5 611,303.5 611,303.5 C611,303.5 611,182 611,182 C611,182 631.907,182 631.907,182" codeLine="50" style="stroke:#000;stroke-width:1"/><polygon fill="#000" points="636.907 182 627.907 178 631.907 182 627.907 186 636.907 182" style="stroke:#000;stroke-width:1"/><path id="outputDeviceTransform.root-to-outputDeviceTransform.hash" fill="none" d="M597.204,308 C613.231,308 624,308 624,308 C624,308 624,251.75 624,251.75 C624,251.75 631.832,251.75 631.832,251.75" codeLine="51" style="stroke:#000;stroke-width:1"/><polygon fill="#000" points="636.832 251.75 627.832 247.75 631.832 251.75 627.832 255.75 636.832 251.75" style="stroke:#000;stroke-width:1"/><path id="outputDeviceTransform.root-to-outputDeviceTransform.uuid" fill="none" d="M597.205,312.5 C597.205,312.5 631.627,312.5 631.627,312.5" codeLine="52" style="stroke:#000;stroke-width:1"/><polygon fill="#000" points="636.627 312.5 627.627 308.5 631.627 312.5 627.627 316.5 636.627 312.5" style="stroke:#000;stroke-width:1"/><path id="outputDeviceTransform.root-to-outputDeviceTransform.file" fill="none" d="M597.205,336 C597.205,336 631.627,336 631.627,336" codeLine="53" style="stroke:#000;stroke-width:1"/><polygon fill="#000" points="636.627 336 627.627 332 631.627 336 627.627 340 636.627 336" style="stroke:#000;stroke-width:1"/><path id="outputDeviceTransform.root-to-outputDeviceTransform.transformId" fill="none" d="M506,345.399 C506,370.254 506,406 506,406 C506,406 631.711,406 631.711,406" codeLine="54" style="stroke:#000;stroke-width:1"/><polygon fill="#000" points="636.711 406 627.711 402 631.711 406 627.711 410 636.711 406" style="stroke:#000;stroke-width:1"/><path id="referenceRenderingTransform.root-to-referenceRenderingTransform.description" fill="none" d="M414,531.532 C414,503.982 414,462 414,462 C414,462 631.925,462 631.925,462" codeLine="50" style="stroke:#000;stroke-width:1"/><polygon fill="#000" points="636.925 462 627.925 458 631.925 462 627.925 466 636.925 462" style="stroke:#000;stroke-width:1"/><path id="referenceRenderingTransform.root-to-referenceRenderingTransform.hash" fill="none" d="M597.205,542.25 C597.205,542.25 631.627,542.25 631.627,542.25" codeLine="51" style="stroke:#000;stroke-width:1"/><polygon fill="#000" points="636.627 542.25 627.627 538.25 631.627 542.25 627.627 546.25 636.627 542.25" style="stroke:#000;stroke-width:1"/><path id="referenceRenderingTransform.root-to-referenceRenderingTransform.uuid" fill="none" d="M597.205,570.5 C597.205,570.5 631.627,570.5 631.627,570.5" codeLine="52" style="stroke:#000;stroke-width:1"/><polygon fill="#000" points="636.627 570.5 627.627 566.5 631.627 570.5 627.627 574.5 636.627 570.5" style="stroke:#000;stroke-width:1"/><path id="referenceRenderingTransform.root-to-referenceRenderingTransform.file" fill="none" d="M506,578.314 C506,604.085 506,642 506,642 C506,642 631.711,642 631.711,642" codeLine="53" style="stroke:#000;stroke-width:1"/><polygon fill="#000" points="636.711 642 627.711 638 631.711 642 627.711 646 636.711 642" style="stroke:#000;stroke-width:1"/><path id="referenceRenderingTransform.root-to-referenceRenderingTransform.transformId" fill="none" d="M414,578.294 C414,618.814 414,698 414,698 C414,698 631.925,698 631.925,698" codeLine="54" style="stroke:#000;stroke-width:1"/><polygon fill="#000" points="636.925 698 627.925 694 631.925 698 627.925 702 636.925 698" style="stroke:#000;stroke-width:1"/><path id="outputTransform.root-to-outputDeviceTransform.root" fill="none" d="M145,233.206 C145,266.012 145,322 145,322 C145,322 316.556,322 316.556,322" codeLine="62" style="stroke:#000;stroke-width:1"/><polygon fill="#000" points="321.556 322 312.556 318 316.556 322 312.556 326 321.556 322" style="stroke:#000;stroke-width:1"/><path id="outputTransform.root-to-referenceRenderingTransform.root" fill="none" d="M76,233.172 C76,310.525 76,555 76,555 C76,555 316.86,555 316.86,555" codeLine="63" style="stroke:#000;stroke-width:1"/><polygon fill="#000" points="321.86 555 312.86 551 316.86 555 312.86 559 321.86 555" style="stroke:#000;stroke-width:1"/></g></svg>