<svg xmlns="http://www.w3.org/2000/svg" xmlns:xlink="http://www.w3.org/1999/xlink" width="918" height="395" contentScriptType="application/ecmascript" contentStyleType="text/css" preserveAspectRatio="none" style="width:918px;height:395px" version="1.1" viewBox="0 0 918 395" zoomAndPan="magnify"><g><rect width="275" height="45.609" x="7" fill="#FFF" style="stroke:#000;stroke-width:1.5" y="119"/><text x="109.5" y="132.139" fill="#000" font-family="sans-serif" font-size="12" lengthAdjust="spacing" textLength="70">pipelineInfo</text><line style="stroke:#000;stroke-width:1.5" x1="8" x2="281" y1="136.969" y2="136.969"/><text x="13" y="150.251" fill="#000" font-family="sans-serif" font-size="10" lengthAdjust="spacing" textLength="120">aces:pipelineInfoType</text><line style="stroke:#000;stroke-width:1;stroke-dasharray:1,2" x1="8" x2="281" y1="156.609" y2="156.609"/><rect width="275" height="45.609" x="322" fill="#FFF" style="stroke:#000;stroke-width:1.5" y="9"/><text x="425.5" y="22.139" fill="#000" font-family="sans-serif" font-size="12" lengthAdjust="spacing" textLength="68">description</text><line style="stroke:#000;stroke-width:1.5" x1="323" x2="596" y1="26.969" y2="26.969"/><text x="328" y="40.251" fill="#000" font-family="sans-serif" font-size="10" lengthAdjust="spacing" textLength="44">xs:string</text><line style="stroke:#000;stroke-width:1;stroke-dasharray:1,2" x1="323" x2="596" y1="46.609" y2="46.609"/><rect width="275" height="45.609" x="322" fill="#FFF" style="stroke:#000;stroke-width:1.5" y="65"/><text x="440.5" y="78.139" fill="#000" font-family="sans-serif" font-size="12" lengthAdjust="spacing" textLength="38">author</text><line style="stroke:#000;stroke-width:1.5" x1="323" x2="596" y1="82.969" y2="82.969"/><text x="328" y="96.251" fill="#000" font-family="sans-serif" font-size="10" lengthAdjust="spacing" textLength="91">aces:authorType</text><line style="stroke:#000;stroke-width:1;stroke-dasharray:1,2" x1="323" x2="596" y1="102.609" y2="102.609"/><rect width="275" height="45.609" x="637" fill="#FFF" style="stroke:#000;stroke-width:1.5" y="7"/><text x="758" y="20.139" fill="#000" font-family="sans-serif" font-size="12" lengthAdjust="spacing" textLength="33">name</text><line style="stroke:#000;stroke-width:1.5" x1="638" x2="911" y1="24.969" y2="24.969"/><text x="643" y="38.251" fill="#000" font-family="sans-serif" font-size="10" lengthAdjust="spacing" textLength="44">xs:string</text><line style="stroke:#000;stroke-width:1;stroke-dasharray:1,2" x1="638" x2="911" y1="44.609" y2="44.609"/><rect width="275" height="45.609" x="637" fill="#FFF" style="stroke:#000;stroke-width:1.5" y="63"/><text x="733" y="76.139" fill="#000" font-family="sans-serif" font-size="12" lengthAdjust="spacing" textLength="83">emailAddress</text><line style="stroke:#000;stroke-width:1.5" x1="638" x2="911" y1="80.969" y2="80.969"/><text x="643" y="94.251" fill="#000" font-family="sans-serif" font-size="10" lengthAdjust="spacing" textLength="128">aces:emailAddressType</text><line style="stroke:#000;stroke-width:1;stroke-dasharray:1,2" x1="638" x2="911" y1="100.609" y2="100.609"/><rect width="275" height="37.609" x="322" fill="#FFF" style="stroke:#000;stroke-width:1.5" y="123"/><text x="431.5" y="136.139" fill="#000" font-family="sans-serif" font-size="12" lengthAdjust="spacing" textLength="56">dateTime</text><line style="stroke:#000;stroke-width:1.5" x1="323" x2="596" y1="140.969" y2="140.969"/><text x="328" y="154.251" fill="#000" font-family="sans-serif" font-size="10" lengthAdjust="spacing" textLength="108">aces:dateTimeType</text><rect width="275" height="45.609" x="637" fill="#FFF" style="stroke:#000;stroke-width:1.5" y="119"/><text x="721.5" y="132.139" fill="#000" font-family="sans-serif" font-size="12" lengthAdjust="spacing" textLength="106">creationDateTime</text><line style="stroke:#000;stroke-width:1.5" x1="638" x2="911" y1="136.969" y2="136.969"/><text x="643" y="150.251" fill="#000" font-family="sans-serif" font-size="10" lengthAdjust="spacing" textLength="67">xs:dateTime</text><line style="stroke:#000;stroke-width:1;stroke-dasharray:1,2" x1="638" x2="911" y1="156.609" y2="156.609"/><rect width="275" height="45.609" x="637" fill="#FFF" style="stroke:#000;stroke-width:1.5" y="175"/><text x="709.5" y="188.139" fill="#000" font-family="sans-serif" font-size="12" lengthAdjust="spacing" textLength="130">modificationDateTime</text><line style="stroke:#000;stroke-width:1.5" x1="638" x2="911" y1="192.969" y2="192.969"/><text x="643" y="206.251" fill="#000" font-family="sans-serif" font-size="10" lengthAdjust="spacing" textLength="67">xs:dateTime</text><line style="stroke:#000;stroke-width:1;stroke-dasharray:1,2" x1="638" x2="911" y1="212.609" y2="212.609"/><rect width="275" height="45.609" x="322" fill="#FFF" style="stroke:#000;stroke-width:1.5" y="171"/><text x="447" y="184.139" fill="#000" font-family="sans-serif" font-size="12" lengthAdjust="spacing" textLength="25">uuid</text><line style="stroke:#000;stroke-width:1.5" x1="323" x2="596" y1="188.969" y2="188.969"/><text x="328" y="202.251" fill="#000" font-family="sans-serif" font-size="10" lengthAdjust="spacing" textLength="84">dcml:UUIDType</text><line style="stroke:#000;stroke-width:1;stroke-dasharray:1,2" x1="323" x2="596" y1="208.609" y2="208.609"/><rect width="275" height="45.609" x="322" fill="#FFF" style="stroke:#000;stroke-width:1.5" y="259"/><text x="414.5" y="272.139" fill="#000" font-family="sans-serif" font-size="12" lengthAdjust="spacing" textLength="90">systemVersion</text><line style="stroke:#000;stroke-width:1.5" x1="323" x2="596" y1="276.969" y2="276.969"/><text x="328" y="290.251" fill="#000" font-family="sans-serif" font-size="10" lengthAdjust="spacing" textLength="94">aces:versionType</text><line style="stroke:#000;stroke-width:1;stroke-dasharray:1,2" x1="323" x2="596" y1="296.609" y2="296.609"/><rect width="275" height="45.609" x="637" fill="#FFF" style="stroke:#000;stroke-width:1.5" y="231"/><text x="734.5" y="244.139" fill="#000" font-family="sans-serif" font-size="12" lengthAdjust="spacing" textLength="80">majorVersion</text><line style="stroke:#000;stroke-width:1.5" x1="638" x2="911" y1="248.969" y2="248.969"/><text x="643" y="262.251" fill="#000" font-family="sans-serif" font-size="10" lengthAdjust="spacing" textLength="112">aces:singleDigitType</text><line style="stroke:#000;stroke-width:1;stroke-dasharray:1,2" x1="638" x2="911" y1="268.609" y2="268.609"/><rect width="275" height="45.609" x="637" fill="#FFF" style="stroke:#000;stroke-width:1.5" y="287"/><text x="734.5" y="300.139" fill="#000" font-family="sans-serif" font-size="12" lengthAdjust="spacing" textLength="80">minorVersion</text><line style="stroke:#000;stroke-width:1.5" x1="638" x2="911" y1="304.969" y2="304.969"/><text x="643" y="318.251" fill="#000" font-family="sans-serif" font-size="10" lengthAdjust="spacing" textLength="112">aces:singleDigitType</text><line style="stroke:#000;stroke-width:1;stroke-dasharray:1,2" x1="638" x2="911" y1="324.609" y2="324.609"/><rect width="275" height="45.609" x="637" fill="#FFF" style="stroke:#000;stroke-width:1.5" y="343"/><text x="735" y="356.139" fill="#000" font-family="sans-serif" font-size="12" lengthAdjust="spacing" textLength="79">patchVersion</text><line style="stroke:#000;stroke-width:1.5" x1="638" x2="911" y1="360.969" y2="360.969"/><text x="643" y="374.251" fill="#000" font-family="sans-serif" font-size="10" lengthAdjust="spacing" textLength="112">aces:singleDigitType</text><line style="stroke:#000;stroke-width:1;stroke-dasharray:1,2" x1="638" x2="911" y1="380.609" y2="380.609"/><path id="pipelineInfo.root-to-pipelineInfo.description" fill="none" d="M99,118.94 C99,86.685 99,32 99,32 C99,32 316.925,32 316.925,32" codeLine="80" style="stroke:#000;stroke-width:1"/><polygon fill="#000" points="321.925 32 312.925 28 316.925 32 312.925 36 321.925 32" style="stroke:#000;stroke-width:1"/><path id="pipelineInfo.root-to-pipelineInfo.author" fill="none" d="M191,118.786 C191,104.15 191,88 191,88 C191,88 316.711,88 316.711,88" codeLine="81" style="stroke:#000;stroke-width:1"/><polygon fill="#000" points="321.711 88 312.711 84 316.711 88 312.711 92 321.711 88" style="stroke:#000;stroke-width:1"/><path id="pipelineInfo.root-to-pipelineInfo.dateTime" fill="none" d="M282.205,142 C282.205,142 316.627,142 316.627,142" codeLine="82" style="stroke:#000;stroke-width:1"/><polygon fill="#000" points="321.627 142 312.627 138 316.627 142 312.627 146 321.627 142" style="stroke:#000;stroke-width:1"/><path id="pipelineInfo.root-to-pipelineInfo.uuid" fill="none" d="M191,165.262 C191,179.108 191,194 191,194 C191,194 316.711,194 316.711,194" codeLine="83" style="stroke:#000;stroke-width:1"/><polygon fill="#000" points="321.711 194 312.711 190 316.711 194 312.711 198 321.711 194" style="stroke:#000;stroke-width:1"/><path id="pipelineInfo.author-to-pipelineInfo.name" fill="none" d="M597.019,79.667 C605.674,79.667 611,79.667 611,79.667 C611,79.667 611,31 611,31 C611,31 631.907,31 631.907,31" codeLine="85" style="stroke:#000;stroke-width:1"/><polygon fill="#000" points="636.907 31 627.907 27 631.907 31 627.907 35 636.907 31" style="stroke:#000;stroke-width:1"/><path id="pipelineInfo.author-to-pipelineInfo.emailAddress" fill="none" d="M597.205,94.333 C597.205,94.333 631.627,94.333 631.627,94.333" codeLine="86" style="stroke:#000;stroke-width:1"/><polygon fill="#000" points="636.627 94.333 627.627 90.333 631.627 94.333 627.627 98.333 636.627 94.333" style="stroke:#000;stroke-width:1"/><path id="pipelineInfo.dateTime-to-pipelineInfo.creationDateTime" fill="none" d="M597.205,135.667 C597.205,135.667 631.627,135.667 631.627,135.667" codeLine="88" style="stroke:#000;stroke-width:1"/><polygon fill="#000" points="636.627 135.667 627.627 131.667 631.627 135.667 627.627 139.667 636.627 135.667" style="stroke:#000;stroke-width:1"/><path id="pipelineInfo.dateTime-to-pipelineInfo.modificationDateTime" fill="none" d="M597.204,148.333 C613.231,148.333 624,148.333 624,148.333 C624,148.333 624,196 624,196 C624,196 631.832,196 631.832,196" codeLine="89" style="stroke:#000;stroke-width:1"/><polygon fill="#000" points="636.832 196 627.832 192 631.832 196 627.832 200 636.832 196" style="stroke:#000;stroke-width:1"/><path id="pipelineInfo.root-to-pipelineInfo.systemVersion" fill="none" d="M99,165.118 C99,204.882 99,282 99,282 C99,282 316.925,282 316.925,282" codeLine="32" style="stroke:#000;stroke-width:1"/><polygon fill="#000" points="321.925 282 312.925 278 316.925 282 312.925 286 321.925 282" style="stroke:#000;stroke-width:1"/><path id="pipelineInfo.systemVersion-to-pipelineInfo.majorVersion" fill="none" d="M597.205,268 C597.205,268 631.627,268 631.627,268" codeLine="34" style="stroke:#000;stroke-width:1"/><polygon fill="#000" points="636.627 268 627.627 264 631.627 268 627.627 272 636.627 268" style="stroke:#000;stroke-width:1"/><path id="pipelineInfo.systemVersion-to-pipelineInfo.minorVersion" fill="none" d="M597.205,296 C597.205,296 631.627,296 631.627,296" codeLine="35" style="stroke:#000;stroke-width:1"/><polygon fill="#000" points="636.627 296 627.627 292 631.627 296 627.627 300 636.627 296" style="stroke:#000;stroke-width:1"/><path id="pipelineInfo.systemVersion-to-pipelineInfo.patchVersion" fill="none" d="M460,305.3987 C460,330.2536 460,366 460,366 C460,366 631.556,366 631.556,366" codeLine="36" style="stroke:#000;stroke-width:1"/><polygon fill="#000" points="636.556 366 627.556 362 631.556 366 627.556 370 636.556 366" style="stroke:#000;stroke-width:1"/></g></svg>